<?xml version="1.0" standalone="no"?>
 <!DOCTYPE svg PUBLIC "-//W3C//DTD SVG 1.1//EN" 
 "http://www.w3.org/Graphics/SVG/1.1/DTD/svg11.dtd"> 
<svg
  xmlns:svg="http://www.w3.org/2000/svg"
  xmlns="http://www.w3.org/2000/svg"
  xmlns:xlink="http://www.w3.org/1999/xlink"
  xmlns:inkscape="http://www.inkscape.org/namespaces/inkscape"
  version="1.1"
  width="100.0mm" height="97.08mm" viewBox="-5.0 -5.0 100.0 97.08" preserveAspectRatio="xMidYMid meet">
<defs><pattern id="world-grid" width="10" height="10" patternUnits="userSpaceOnUse"><path d="M10 0H0V10" fill="none" stroke="#284055" stroke-width="0.12"/></pattern></defs><rect x="-5.0" y="-5.0" width="100.0" height="97.08" fill="url(#world-grid)"/><title>SVG Image created as B.Cu-absolute.tmp.svg date 2026-09-13T12:25:17 </title>
  <desc>Image generated by PCBNEW </desc>
<g style="fill:#000000; fill-opacity:1.0000;stroke:#000000; stroke-opacity:1.0000;
stroke-linecap:round; stroke-linejoin:round;"
 transform="translate(0 0) scale(1 1)">
<path style="fill:#4D7FC4; fill-opacity:1.0000; stroke:none;fill-rule:evenodd;"
d="M 29.1798,73.4598
27.3002,73.4598
27.3002,71.5802
29.1798,71.5802
Z" /> 
</g>
<g style="fill:#4D7FC4; fill-opacity:1.0000; stroke:none;">
<circle cx="28.2400" cy="69.9800" r="0.9398" /> 
<circle cx="30.7800" cy="72.5200" r="0.9398" /> 
<circle cx="30.7800" cy="69.9800" r="0.9398" /> 
<circle cx="33.3200" cy="72.5200" r="0.9398" /> 
<circle cx="33.3200" cy="69.9800" r="0.9398" /> 
<circle cx="35.8600" cy="72.5200" r="0.9398" /> 
<circle cx="35.8600" cy="69.9800" r="0.9398" /> 
<path style="fill:#4D7FC4; fill-opacity:1.0000; stroke:none;fill-rule:evenodd;"
d="M 59.7798,30.9598
57.9002,30.9598
57.9002,29.0802
59.7798,29.0802
Z" /> 
<circle cx="58.8400" cy="27.4800" r="0.9398" /> 
<circle cx="61.3800" cy="30.0200" r="0.9398" /> 
<circle cx="61.3800" cy="27.4800" r="0.9398" /> 
<circle cx="63.9200" cy="30.0200" r="0.9398" /> 
<circle cx="63.9200" cy="27.4800" r="0.9398" /> 
<circle cx="66.4600" cy="30.0200" r="0.9398" /> 
<circle cx="66.4600" cy="27.4800" r="0.9398" /> 
<path style="fill:#4D7FC4; fill-opacity:1.0000; stroke:none;fill-rule:evenodd;"
d="M 29.1798,30.9598
27.3002,30.9598
27.3002,29.0802
29.1798,29.0802
Z" /> 
<circle cx="28.2400" cy="27.4800" r="0.9398" /> 
<circle cx="30.7800" cy="30.0200" r="0.9398" /> 
<circle cx="30.7800" cy="27.4800" r="0.9398" /> 
<circle cx="33.3200" cy="30.0200" r="0.9398" /> 
<circle cx="33.3200" cy="27.4800" r="0.9398" /> 
<circle cx="35.8600" cy="30.0200" r="0.9398" /> 
<circle cx="35.8600" cy="27.4800" r="0.9398" /> 
<path style="fill:#4D7FC4; fill-opacity:1.0000; stroke:none;fill-rule:evenodd;"
d="M 75.0798,30.9598
73.2002,30.9598
73.2002,29.0802
75.0798,29.0802
Z" /> 
<circle cx="74.1400" cy="27.4800" r="0.9398" /> 
<circle cx="76.6800" cy="30.0200" r="0.9398" /> 
<circle cx="76.6800" cy="27.4800" r="0.9398" /> 
<circle cx="79.2200" cy="30.0200" r="0.9398" /> 
<circle cx="79.2200" cy="27.4800" r="0.9398" /> 
<circle cx="81.7600" cy="30.0200" r="0.9398" /> 
<circle cx="81.7600" cy="27.4800" r="0.9398" /> 
<path style="fill:#4D7FC4; fill-opacity:1.0000; stroke:none;fill-rule:evenodd;"
d="M 75.0798,73.4598
73.2002,73.4598
73.2002,71.5802
75.0798,71.5802
Z" /> 
<circle cx="74.1400" cy="69.9800" r="0.9398" /> 
<circle cx="76.6800" cy="72.5200" r="0.9398" /> 
<circle cx="76.6800" cy="69.9800" r="0.9398" /> 
<circle cx="79.2200" cy="72.5200" r="0.9398" /> 
<circle cx="79.2200" cy="69.9800" r="0.9398" /> 
<circle cx="81.7600" cy="72.5200" r="0.9398" /> 
<circle cx="81.7600" cy="69.9800" r="0.9398" /> 
<path style="fill:#4D7FC4; fill-opacity:1.0000; stroke:none;fill-rule:evenodd;"
d="M 59.7798,73.4598
57.9002,73.4598
57.9002,71.5802
59.7798,71.5802
Z" /> 
<circle cx="58.8400" cy="69.9800" r="0.9398" /> 
<circle cx="61.3800" cy="72.5200" r="0.9398" /> 
<circle cx="61.3800" cy="69.9800" r="0.9398" /> 
<circle cx="63.9200" cy="72.5200" r="0.9398" /> 
<circle cx="63.9200" cy="69.9800" r="0.9398" /> 
<circle cx="66.4600" cy="72.5200" r="0.9398" /> 
<circle cx="66.4600" cy="69.9800" r="0.9398" /> 
<path style="fill:#4D7FC4; fill-opacity:1.0000; stroke:none;fill-rule:evenodd;"
d="M 44.4798,30.9598
42.6002,30.9598
42.6002,29.0802
44.4798,29.0802
Z" /> 
<circle cx="43.5400" cy="27.4800" r="0.9398" /> 
<circle cx="46.0800" cy="30.0200" r="0.9398" /> 
<circle cx="46.0800" cy="27.4800" r="0.9398" /> 
<circle cx="48.6200" cy="30.0200" r="0.9398" /> 
<circle cx="48.6200" cy="27.4800" r="0.9398" /> 
<circle cx="51.1600" cy="30.0200" r="0.9398" /> 
<circle cx="51.1600" cy="27.4800" r="0.9398" /> 
<path style="fill:#4D7FC4; fill-opacity:1.0000; stroke:none;fill-rule:evenodd;"
d="M 44.4798,73.4598
42.6002,73.4598
42.6002,71.5802
44.4798,71.5802
Z" /> 
<circle cx="43.5400" cy="69.9800" r="0.9398" /> 
<circle cx="46.0800" cy="72.5200" r="0.9398" /> 
<circle cx="46.0800" cy="69.9800" r="0.9398" /> 
<circle cx="48.6200" cy="72.5200" r="0.9398" /> 
<circle cx="48.6200" cy="69.9800" r="0.9398" /> 
<circle cx="51.1600" cy="72.5200" r="0.9398" /> 
<circle cx="51.1600" cy="69.9800" r="0.9398" /> 
<circle cx="59.4184" cy="58.3731" r="0.3000" /> 
<circle cx="59.1780" cy="46.6882" r="0.3000" /> 
<circle cx="31.3441" cy="61.0099" r="0.3000" /> 
<circle cx="31.7970" cy="55.1341" r="0.3000" /> 
<circle cx="31.7970" cy="31.9789" r="0.3000" /> 
<circle cx="43.1389" cy="61.4503" r="0.3000" /> 
<circle cx="33.4691" cy="43.2322" r="0.3000" /> 
<circle cx="33.9400" cy="55.7047" r="0.3000" /> 
<circle cx="66.2589" cy="37.9561" r="0.3000" /> 
<circle cx="77.5438" cy="40.6578" r="0.3000" /> 
<circle cx="75.6593" cy="39.1498" r="0.3000" /> 
<circle cx="49.9577" cy="38.3181" r="0.3000" /> 
<circle cx="49.9015" cy="44.0203" r="0.3000" /> 
<circle cx="67.8048" cy="40.0034" r="0.3000" /> 
<circle cx="40.7432" cy="42.5983" r="0.3000" /> 
<circle cx="40.5881" cy="36.9018" r="0.3000" /> 
<circle cx="54.5256" cy="44.8773" r="0.3000" /> 
<circle cx="54.2743" cy="43.2721" r="0.3000" /> 
<circle cx="77.0000" cy="36.6523" r="0.3000" /> 
<circle cx="76.5911" cy="42.0675" r="0.3000" /> 
<circle cx="64.7516" cy="42.6210" r="0.3000" /> 
<circle cx="41.3450" cy="34.8039" r="0.3000" /> 
<circle cx="64.7516" cy="39.8822" r="0.3000" /> 
<circle cx="44.6699" cy="42.5983" r="0.3000" /> 
<circle cx="39.9377" cy="39.0340" r="0.3000" /> 
<circle cx="61.3800" cy="43.2882" r="0.3000" /> 
<circle cx="39.9377" cy="35.9001" r="0.3000" /> 
<circle cx="59.7082" cy="42.6623" r="0.3000" /> 
<circle cx="60.2851" cy="47.4113" r="0.3000" /> 
<circle cx="44.1191" cy="32.8893" r="0.3000" /> 
<circle cx="44.8506" cy="47.4500" r="0.3000" /> 
<circle cx="38.9407" cy="32.4982" r="0.3000" /> 
<circle cx="38.9407" cy="47.7427" r="0.3000" /> 
<circle cx="64.7848" cy="35.5473" r="0.3000" /> 
<circle cx="73.3000" cy="50.8750" r="0.3000" /> 
<circle cx="75.9631" cy="41.5614" r="0.3000" /> 
<circle cx="77.9500" cy="46.6457" r="0.3000" /> 
<circle cx="49.8900" cy="24.9934" r="0.3000" /> 
<circle cx="45.0768" cy="35.0984" r="0.3000" /> 
<circle cx="54.9480" cy="47.4500" r="0.3000" /> 
<circle cx="50.8106" cy="34.3016" r="0.3000" /> 
<circle cx="47.0575" cy="46.6312" r="0.3000" /> 
<circle cx="45.6859" cy="32.5110" r="0.3000" /> 
<circle cx="51.8337" cy="41.0390" r="0.3000" /> 
<circle cx="51.4823" cy="50.9044" r="0.3000" /> 
<circle cx="50.5799" cy="36.9018" r="0.3000" /> 
<circle cx="50.5799" cy="48.2420" r="0.3000" /> 
<circle cx="67.4440" cy="31.9170" r="0.3000" /> 
<circle cx="45.2937" cy="52.1113" r="0.3000" /> 
<circle cx="78.4414" cy="52.5236" r="0.3000" /> 
<circle cx="65.0305" cy="55.7047" r="0.3000" /> 
<circle cx="65.0288" cy="32.4982" r="0.3000" /> 
<circle cx="64.1532" cy="34.4482" r="0.3000" /> 
<circle cx="63.7493" cy="55.2833" r="0.3000" /> 
<circle cx="55.6202" cy="53.6472" r="0.3000" /> 
<circle cx="55.9151" cy="32.4982" r="0.3000" /> 
<circle cx="44.4551" cy="39.8459" r="0.3000" /> 
<circle cx="46.6311" cy="52.5128" r="0.3000" /> 
<circle cx="53.9437" cy="37.0442" r="0.3000" /> 
<circle cx="53.9738" cy="51.7612" r="0.3000" /> 
<circle cx="47.6055" cy="52.9689" r="0.3000" /> 
<circle cx="66.4457" cy="34.8782" r="0.3000" /> 
<circle cx="56.0209" cy="37.0317" r="0.3000" /> 
<circle cx="54.8605" cy="50.3607" r="0.3000" /> 
<circle cx="44.8101" cy="50.6131" r="0.3000" /> 
<circle cx="54.8605" cy="54.2490" r="0.3000" /> 
<circle cx="78.5333" cy="59.0002" r="0.3000" /> 
<circle cx="79.2288" cy="60.4271" r="0.3000" /> 
<circle cx="47.4359" cy="48.2533" r="0.3000" /> 
<circle cx="47.2311" cy="63.6328" r="0.3000" /> 
<circle cx="45.8243" cy="48.0691" r="0.3000" /> 
<circle cx="54.1504" cy="64.5086" r="0.3000" /> 
<circle cx="71.5199" cy="53.0526" r="0.3000" /> 
<circle cx="70.7152" cy="32.4982" r="0.3000" /> 
<circle cx="35.2626" cy="32.4982" r="0.3000" /> 
<circle cx="35.2626" cy="46.8483" r="0.3000" /> 
<circle cx="32.7888" cy="63.6349" r="0.3000" /> 
<circle cx="32.7888" cy="48.2636" r="0.3000" /> 
<circle cx="46.2557" cy="46.4639" r="0.3000" /> 
<circle cx="31.9589" cy="63.4432" r="0.3000" /> 
<circle cx="32.9669" cy="42.0571" r="0.3000" /> 
<circle cx="33.7791" cy="33.9326" r="0.3000" /> 
<circle cx="49.2021" cy="39.7307" r="0.3000" /> 
<circle cx="49.0367" cy="54.6678" r="0.3000" /> 
<circle cx="53.9118" cy="53.2455" r="0.3000" /> 
<circle cx="52.7083" cy="53.3615" r="0.3000" /> 
<circle cx="57.1412" cy="49.1690" r="0.3000" /> 
<circle cx="58.3572" cy="34.8905" r="0.3000" /> 
<circle cx="57.7029" cy="32.4982" r="0.3000" /> 
<circle cx="57.5765" cy="55.0818" r="0.3000" /> 
<circle cx="58.7491" cy="37.8096" r="0.3000" /> 
<circle cx="50.7017" cy="33.4066" r="0.3000" /> 
<circle cx="44.1891" cy="61.2917" r="0.3000" /> 
<circle cx="74.7927" cy="44.6601" r="0.3000" /> 
<circle cx="69.9197" cy="41.2000" r="0.3000" /> 
<circle cx="69.9197" cy="36.9018" r="0.3000" /> 
<circle cx="63.8743" cy="61.5538" r="0.3000" /> 
<circle cx="61.7846" cy="63.6435" r="0.3000" /> 
<circle cx="70.8030" cy="55.7027" r="0.3000" /> 
<circle cx="65.8417" cy="32.8210" r="0.3000" /> 
<circle cx="37.0820" cy="32.4982" r="0.3000" /> 
<circle cx="37.0820" cy="46.6250" r="0.3000" /> 
<circle cx="44.1563" cy="46.0831" r="0.3000" /> 
<circle cx="42.2533" cy="39.2380" r="0.3000" /> 
<circle cx="61.2435" cy="46.4737" r="0.3000" /> 
<circle cx="61.1046" cy="44.1438" r="0.3000" /> 
<circle cx="63.1000" cy="63.6398" r="0.3000" /> 
<circle cx="64.2587" cy="56.4314" r="0.3000" /> 
<circle cx="49.2897" cy="40.5497" r="0.3000" /> 
<circle cx="49.2897" cy="48.8437" r="0.3000" /> 
<circle cx="69.2434" cy="44.7995" r="0.3000" /> 
<circle cx="57.0362" cy="50.5273" r="0.3000" /> 
<circle cx="70.6746" cy="35.7000" r="0.3000" /> 
<circle cx="61.8659" cy="44.7995" r="0.3000" /> 
<circle cx="35.8645" cy="43.2330" r="0.3000" /> 
<circle cx="35.8645" cy="49.8947" r="0.3000" /> 
<circle cx="73.8329" cy="36.6628" r="0.3000" /> 
<circle cx="72.1736" cy="44.0281" r="0.3000" /> 
<circle cx="55.5497" cy="46.6798" r="0.3000" /> 
<circle cx="51.3481" cy="52.9421" r="0.3000" /> 
<circle cx="53.6662" cy="46.6798" r="0.3000" /> 
<circle cx="55.6757" cy="40.0239" r="0.3000" /> 
<circle cx="61.1384" cy="42.4242" r="0.3000" /> 
<circle cx="59.9875" cy="40.1240" r="0.3000" /> 
<circle cx="50.7593" cy="32.4982" r="0.3000" /> 
<circle cx="48.2350" cy="55.0234" r="0.3000" /> 
<circle cx="70.5165" cy="48.5742" r="0.3000" /> 
<circle cx="66.4579" cy="41.3947" r="0.3000" /> 
<circle cx="46.0981" cy="55.9500" r="0.3000" /> 
<circle cx="52.5795" cy="34.8863" r="0.3000" /> 
<circle cx="57.1710" cy="46.3684" r="0.3000" /> 
<circle cx="54.8739" cy="39.9500" r="0.3000" /> 
<circle cx="37.4813" cy="41.9485" r="0.3000" /> 
<circle cx="49.6592" cy="53.4228" r="0.3000" /> 
<circle cx="38.8660" cy="54.0967" r="0.3000" /> 
<circle cx="51.1816" cy="43.2000" r="0.3000" /> 
<circle cx="40.9821" cy="45.0423" r="0.3000" /> 
<circle cx="40.1478" cy="44.8610" r="0.3000" /> 
</g>
<g style="fill:none; 
stroke:#4D7FC4; stroke-width:0.2000; stroke-opacity:1; 
stroke-linecap:round; stroke-linejoin:round;">
<path d="M58.8400 72.5200
L60.0815 72.5200
" />
<path d="M58.9841 38.4255
L59.3858 38.0238
" />
<path d="M58.8400 30.0200
L58.8400 31.2615
" />
<path d="M59.3858 31.8073
L58.8400 31.2615
" />
<path d="M56.4236 50.1844
L56.8373 49.7707
" />
<path d="M59.0319 48.1292
L59.0319 46.6882
" />
<path d="M59.3858 38.0238
L59.3858 31.8073
" />
<path d="M66.4600 69.9800
L65.1615 71.2785
" />
<path d="M69.0000 30.0200
L74.1400 30.0200
" />
<path d="M60.8573 71.2785
L60.0815 72.0543
" />
<path d="M59.0319 46.6882
L59.1780 46.6882
" />
<path d="M59.0319 46.6882
L58.9841 46.6404
" />
<path d="M35.8600 69.9800
L31.3441 65.4641
" />
<path d="M65.1615 71.2785
L60.8573 71.2785
" />
<path d="M38.4000 72.5200
L42.2985 72.5200
" />
<path d="M56.8373 49.7707
L57.3904 49.7707
" />
<path d="M56.4236 50.8289
L56.4236 50.1844
" />
<path d="M59.4184 58.3731
L59.4184 53.8237
" />
<path d="M43.5400 72.5200
L42.2985 72.5200
" />
<path d="M59.4184 53.8237
L56.4236 50.8289
" />
<path d="M60.0815 72.0543
L60.0815 72.5200
" />
<path d="M31.3441 65.4641
L31.3441 61.0099
" />
<path d="M58.9841 46.6404
L58.9841 38.4255
" />
<path d="M57.3904 49.7707
L59.0319 48.1292
" />
<path d="M35.8600 69.9800
L38.4000 72.5200
" />
<path d="M66.4600 27.4800
L69.0000 30.0200
" />
<path d="M31.7970 55.1341
L31.7970 31.9789
" />
<path d="M34.0193 40.9599
L34.0193 42.6820
" />
<path d="M39.6856 61.4503
L43.1389 61.4503
" />
<path d="M34.3809 31.0809
L34.3809 40.5983
" />
<path d="M33.9400 55.7047
L39.6856 61.4503
" />
<path d="M33.3200 30.0200
L34.3809 31.0809
" />
<path d="M34.0193 42.6820
L33.4691 43.2322
" />
<path d="M33.4691 43.2322
L33.4691 55.2338
" />
<path d="M34.3809 40.5983
L34.0193 40.9599
" />
<path d="M33.4691 55.2338
L33.9400 55.7047
" />
<path d="M67.8048 40.0034
L66.2589 38.4575
" />
<path d="M77.6176 40.5840
L77.6176 36.3812
" />
<path d="M75.6593 37.1084
L75.6593 39.1498
" />
<path d="M77.2551 36.0187
L76.7490 36.0187
" />
<path d="M77.6176 36.3812
L77.2551 36.0187
" />
<path d="M77.5438 40.6578
L77.6176 40.5840
" />
<path d="M49.9577 43.9641
L49.9015 44.0203
" />
<path d="M76.7490 36.0187
L75.6593 37.1084
" />
<path d="M49.9577 38.3181
L49.9577 43.9641
" />
<path d="M66.2589 38.4575
L66.2589 37.9561
" />
<path d="M44.8100 28.7500
L46.0800 27.4800
" />
<path d="M40.7432 36.9018
L40.7432 42.5983
" />
<path d="M40.7432 30.4638
L42.4570 28.7500
" />
<path d="M42.4570 28.7500
L44.8100 28.7500
" />
<path d="M40.7432 36.9018
L40.7432 30.4638
" />
<path d="M40.7432 36.9018
L40.5881 36.9018
" />
<path d="M77.0000 36.6523
L76.5911 37.0612
" />
<path d="M54.2743 44.6260
L54.5256 44.8773
" />
<path d="M54.2743 43.2721
L54.2743 44.6260
" />
<path d="M76.5911 37.0612
L76.5911 42.0675
" />
<path d="M46.0800 30.0200
L41.3450 34.7550
" />
<path d="M41.3450 34.7550
L41.3450 34.8039
" />
<path d="M41.3450 39.2734
L44.6699 42.5983
" />
<path d="M41.3450 34.8039
L41.3450 39.2734
" />
<path d="M64.7516 39.8822
L64.7516 42.6210
" />
<path d="M61.3800 43.2882
L61.7401 42.9281
" />
<path d="M61.7401 42.9281
L61.7401 30.3801
" />
<path d="M61.7401 30.3801
L61.3800 30.0200
" />
<path d="M39.9377 35.9001
L39.9377 39.0340
" />
<path d="M61.3800 27.4800
L60.1152 28.7448
" />
<path d="M60.2851 43.2392
L60.2851 47.4113
" />
<path d="M59.3858 39.6550
L59.3858 42.3399
" />
<path d="M60.1152 28.7448
L60.1152 38.9256
" />
<path d="M59.3858 42.3399
L59.7082 42.6623
" />
<path d="M59.7082 42.6623
L60.2851 43.2392
" />
<path d="M60.1152 38.9256
L59.3858 39.6550
" />
<path d="M43.9769 40.5230
L43.8943 40.5230
" />
<path d="M43.8943 40.5230
L43.8512 40.4799
" />
<path d="M43.8512 33.1572
L44.1191 32.8893
" />
<path d="M44.0522 40.4477
L43.9769 40.5230
" />
<path d="M44.8506 43.9876
L45.6734 43.1648
" />
<path d="M45.6734 43.1648
L45.6734 41.7363
" />
<path d="M45.6734 41.7363
L44.3848 40.4477
" />
<path d="M44.8506 47.4500
L44.8506 43.9876
" />
<path d="M43.8512 40.4799
L43.8512 33.1572
" />
<path d="M44.3848 40.4477
L44.0522 40.4477
" />
<path d="M38.9407 32.4982
L38.9407 47.7427
" />
<path d="M65.3533 40.2748
L65.4438 40.3653
" />
<path d="M65.3533 39.6330
L65.3533 40.2748
" />
<path d="M61.3800 69.9800
L68.7200 62.6400
" />
<path d="M65.2422 38.9742
L65.2684 39.0004
" />
<path d="M68.7200 62.6400
L68.7200 58.7598
" />
<path d="M65.2422 36.0047
L65.2422 38.9742
" />
<path d="M65.4438 40.3653
L65.4438 48.6170
" />
<path d="M65.2684 39.0004
L65.2684 39.5481
" />
<path d="M70.8025 56.5740
L73.3000 54.0765
" />
<path d="M68.7200 58.7598
L70.8025 56.6773
" />
<path d="M65.2684 39.5481
L65.3533 39.6330
" />
<path d="M70.8025 56.5741
L70.8025 56.5740
" />
<path d="M65.4438 48.6170
L65.8389 49.0121
" />
<path d="M70.8025 56.6773
L70.8025 56.5741
" />
<path d="M73.3000 54.0765
L73.3000 50.8750
" />
<path d="M64.7848 35.5473
L65.2422 36.0047
" />
<path d="M65.8389 51.6105
L70.8025 56.5740
" />
<path d="M65.8389 49.0121
L65.8389 51.6105
" />
<path d="M47.3215 29.5142
L47.3215 30.5794
" />
<path d="M45.5095 31.8281
L45.0768 32.2608
" />
<path d="M77.9500 28.7500
L77.9500 34.7685
" />
<path d="M46.0728 31.8281
L45.5095 31.8281
" />
<path d="M45.0768 32.2608
L45.0768 35.0984
" />
<path d="M77.9500 42.6692
L77.9500 46.6457
" />
<path d="M77.9500 42.6692
L76.3420 42.6692
" />
<path d="M75.9631 42.2903
L75.9631 41.5614
" />
<path d="M78.1508 42.4684
L77.9500 42.6692
" />
<path d="M76.3420 42.6692
L75.9631 42.2903
" />
<path d="M47.3215 30.5794
L46.0728 31.8281
" />
<path d="M78.1508 34.9693
L78.1508 42.4684
" />
<path d="M49.8900 28.0143
L49.1543 28.7500
" />
<path d="M76.6800 27.4800
L77.9500 28.7500
" />
<path d="M77.9500 34.7685
L78.1508 34.9693
" />
<path d="M49.1543 28.7500
L48.0857 28.7500
" />
<path d="M49.8900 24.9934
L49.8900 28.0143
" />
<path d="M48.0857 28.7500
L47.3215 29.5142
" />
<path d="M50.8277 34.2845
L52.8749 34.2845
" />
<path d="M54.5455 35.9551
L54.5455 38.9273
" />
<path d="M52.8749 34.2845
L54.5455 35.9551
" />
<path d="M54.9480 46.1088
L54.9480 47.4500
" />
<path d="M54.2722 39.2006
L54.2722 40.6949
" />
<path d="M55.1561 41.5788
L55.1561 45.9007
" />
<path d="M54.2722 40.6949
L55.1561 41.5788
" />
<path d="M50.8106 34.3016
L50.8277 34.2845
" />
<path d="M55.1561 45.9007
L54.9480 46.1088
" />
<path d="M54.5455 38.9273
L54.2722 39.2006
" />
<path d="M45.8742 44.4029
L46.4768 43.8003
" />
<path d="M45.6540 46.2148
L45.8742 45.9946
" />
<path d="M46.4768 43.8003
L46.4768 33.3019
" />
<path d="M46.0066 47.0656
L45.6540 46.7130
" />
<path d="M46.4768 33.3019
L45.6859 32.5110
" />
<path d="M45.8742 45.9946
L45.8742 44.4029
" />
<path d="M45.6540 46.7130
L45.6540 46.2148
" />
<path d="M46.6231 47.0656
L46.0066 47.0656
" />
<path d="M47.0575 46.6312
L46.6231 47.0656
" />
<path d="M51.8337 50.5530
L51.8337 41.0390
" />
<path d="M51.4823 50.9044
L51.8337 50.5530
" />
<path d="M50.5799 48.2420
L50.5799 36.9018
" />
<path d="M64.4626 73.7783
L65.1900 73.0509
" />
<path d="M45.0883 52.3167
L45.2937 52.1113
" />
<path d="M75.0330 44.0461
L75.7159 44.7290
" />
<path d="M75.7159 49.7981
L78.4414 52.5236
" />
<path d="M49.8615 73.0282
L49.8615 61.2897
" />
<path d="M65.1900 72.0334
L65.9449 71.2785
" />
<path d="M61.3800 72.5200
L62.6383 73.7783
" />
<path d="M61.3800 72.5200
L60.0840 73.8160
" />
<path d="M74.4419 35.3248
L74.4419 44.0461
" />
<path d="M67.4440 31.9170
L67.4992 31.8618
" />
<path d="M65.1900 73.0509
L65.1900 72.0334
" />
<path d="M74.0788 44.4092
L74.4419 44.0461
" />
<path d="M49.8615 61.2897
L45.0883 56.5165
" />
<path d="M74.4419 44.0461
L75.0330 44.0461
" />
<path d="M50.6493 73.8160
L49.8615 73.0282
" />
<path d="M60.0840 73.8160
L50.6493 73.8160
" />
<path d="M70.9789 31.8618
L74.4419 35.3248
" />
<path d="M45.0883 56.5165
L45.0883 52.3167
" />
<path d="M74.0788 64.1516
L74.0788 44.4092
" />
<path d="M67.4992 31.8618
L70.9789 31.8618
" />
<path d="M75.7159 44.7290
L75.7159 49.7981
" />
<path d="M65.9449 71.2785
L66.9519 71.2785
" />
<path d="M62.6383 73.7783
L64.4626 73.7783
" />
<path d="M66.9519 71.2785
L74.0788 64.1516
" />
<path d="M64.0860 42.1058
L64.0860 54.7602
" />
<path d="M64.2333 41.9585
L64.0860 42.1058
" />
<path d="M64.1499 40.1313
L64.2333 40.2147
" />
<path d="M64.2333 40.2147
L64.2333 41.9585
" />
<path d="M65.0288 34.4347
L64.1499 35.3136
" />
<path d="M65.0288 32.4982
L65.0288 34.4347
" />
<path d="M64.0860 54.7602
L65.0305 55.7047
" />
<path d="M64.1499 35.3136
L64.1499 40.1313
" />
<path d="M63.8143 41.8095
L63.6843 41.9395
" />
<path d="M63.6843 41.9395
L63.6843 55.2183
" />
<path d="M63.7482 40.2976
L63.8143 40.3637
" />
<path d="M64.1532 34.4482
L63.7482 34.8532
" />
<path d="M63.8143 40.3637
L63.8143 41.8095
" />
<path d="M63.7482 34.8532
L63.7482 40.2976
" />
<path d="M63.6843 55.2183
L63.7493 55.2833
" />
<path d="M56.6390 40.4795
L56.6791 40.4394
" />
<path d="M56.5693 47.0973
L56.5693 46.1193
" />
<path d="M56.0219 49.3928
L56.0219 47.6447
" />
<path d="M56.5693 46.1193
L56.6390 46.0496
" />
<path d="M56.6791 40.4394
L56.6791 33.2622
" />
<path d="M55.6202 49.7945
L56.0219 49.3928
" />
<path d="M56.0219 47.6447
L56.5693 47.0973
" />
<path d="M56.6791 33.2622
L55.9151 32.4982
" />
<path d="M56.6390 46.0496
L56.6390 40.4795
" />
<path d="M55.6202 53.6472
L55.6202 49.7945
" />
<path d="M45.6734 43.7328
L46.0751 43.3311
" />
<path d="M45.2523 44.4568
L45.6734 44.0357
" />
<path d="M46.0751 43.3311
L46.0751 41.4659
" />
<path d="M46.0751 41.4659
L44.4551 39.8459
" />
<path d="M45.6734 44.0357
L45.6734 43.7328
" />
<path d="M46.6311 47.9981
L46.1003 47.4673
" />
<path d="M46.6311 52.5128
L46.6311 47.9981
" />
<path d="M45.8403 47.4673
L45.2523 46.8793
" />
<path d="M46.1003 47.4673
L45.8403 47.4673
" />
<path d="M45.2523 46.8793
L45.2523 44.4568
" />
<path d="M53.9738 47.2231
L53.9738 51.7612
" />
<path d="M54.3045 46.8924
L53.9738 47.2231
" />
<path d="M53.9437 37.0442
L53.6726 37.3153
" />
<path d="M53.6726 37.3153
L53.6726 45.7621
" />
<path d="M54.3045 46.3940
L54.3045 46.8924
" />
<path d="M53.6726 45.7621
L54.3045 46.3940
" />
<path d="M45.4900 56.3500
L45.4900 55.0844
" />
<path d="M71.0239 31.3152
L75.0576 35.3489
" />
<path d="M63.1416 33.4504
L63.1416 56.3884
" />
<path d="M53.4676 64.7182
L53.4676 64.3276
" />
<path d="M77.9229 59.8086
L77.9229 71.2771
" />
<path d="M76.8900 47.4250
L79.0432 49.5782
" />
<path d="M53.4676 64.3276
L45.4900 56.3500
" />
<path d="M53.8957 65.1463
L53.4676 64.7182
" />
<path d="M76.8900 44.4891
L76.8900 47.4250
" />
<path d="M66.1688 32.2751
L67.1287 31.3152
" />
<path d="M75.0576 35.3489
L75.0576 42.6567
" />
<path d="M77.9229 71.2771
L76.6800 72.5200
" />
<path d="M63.1416 56.3884
L54.3837 65.1463
" />
<path d="M64.7207 31.8713
L63.1416 33.4504
" />
<path d="M45.4900 55.0844
L47.6055 52.9689
" />
<path d="M65.7650 31.8713
L64.7207 31.8713
" />
<path d="M67.1287 31.3152
L71.0239 31.3152
" />
<path d="M77.5212 56.8088
L77.5212 59.4069
" />
<path d="M77.5212 59.4069
L77.9229 59.8086
" />
<path d="M66.1688 32.2751
L65.7650 31.8713
" />
<path d="M79.0432 55.2868
L77.5212 56.8088
" />
<path d="M54.3837 65.1463
L53.8957 65.1463
" />
<path d="M79.0432 49.5782
L79.0432 55.2868
" />
<path d="M66.4457 34.8782
L66.4457 32.5520
" />
<path d="M66.4457 32.5520
L66.1688 32.2751
" />
<path d="M75.0576 42.6567
L76.8900 44.4891
" />
<path d="M53.7000 27.4800
L58.8400 27.4800
" />
<path d="M80.4900 26.9655
L79.7488 26.2243
" />
<path d="M56.3000 72.5200
L51.1600 72.5200
" />
<path d="M58.8400 69.9800
L56.3000 72.5200
" />
<path d="M29.5100 71.2500
L28.2400 69.9800
" />
<path d="M81.7600 30.0200
L80.4900 28.7500
" />
<path d="M29.4957 26.2243
L28.2400 27.4800
" />
<path d="M75.4100 71.2500
L75.4100 73.0734
" />
<path d="M34.5900 26.9655
L33.8488 26.2243
" />
<path d="M77.9785 71.8977
L78.6262 71.2500
" />
<path d="M75.3957 26.2243
L74.1400 27.4800
" />
<path d="M34.5900 71.2500
L29.5100 71.2500
" />
<path d="M76.1190 73.7824
L77.1890 73.7824
" />
<path d="M33.8488 26.2243
L29.4957 26.2243
" />
<path d="M38.4000 27.4800
L35.8600 30.0200
" />
<path d="M81.7600 72.5200
L80.4900 71.2500
" />
<path d="M35.8600 30.0200
L34.5900 28.7500
" />
<path d="M80.4900 28.7500
L80.4900 26.9655
" />
<path d="M71.6000 72.5200
L66.4600 72.5200
" />
<path d="M77.9785 72.9929
L77.9785 71.8977
" />
<path d="M80.4900 71.2500
L80.4900 31.2900
" />
<path d="M34.5900 28.7500
L34.5900 26.9655
" />
<path d="M74.1400 69.9800
L71.6000 72.5200
" />
<path d="M80.4900 31.2900
L81.7600 30.0200
" />
<path d="M74.1400 69.9800
L75.4100 71.2500
" />
<path d="M75.4100 73.0734
L76.1190 73.7824
" />
<path d="M43.5400 27.4800
L38.4000 27.4800
" />
<path d="M78.6262 71.2500
L80.4900 71.2500
" />
<path d="M51.1600 30.0200
L53.7000 27.4800
" />
<path d="M35.8600 72.5200
L34.5900 71.2500
" />
<path d="M77.1890 73.7824
L77.9785 72.9929
" />
<path d="M79.7488 26.2243
L75.3957 26.2243
" />
<path d="M56.2774 37.2882
L56.0209 37.0317
" />
<path d="M44.8101 71.2501
L46.0800 72.5200
" />
<path d="M56.1676 45.9530
L56.2373 45.8833
" />
<path d="M54.8605 50.3607
L54.8605 54.2490
" />
<path d="M56.2373 40.3132
L56.2774 40.2731
" />
<path d="M56.2373 45.8833
L56.2373 40.3132
" />
<path d="M55.6202 47.4783
L56.1676 46.9309
" />
<path d="M55.6202 49.2265
L55.6202 47.4783
" />
<path d="M44.2849 59.7285
L44.8101 60.2537
" />
<path d="M44.8101 50.6131
L44.2849 51.1383
" />
<path d="M44.2849 51.1383
L44.2849 59.7285
" />
<path d="M56.2774 40.2731
L56.2774 37.2882
" />
<path d="M54.8605 49.9862
L55.6202 49.2265
" />
<path d="M56.1676 46.9309
L56.1676 45.9530
" />
<path d="M44.8101 60.2537
L44.8101 71.2501
" />
<path d="M54.8605 50.3607
L54.8605 49.9862
" />
<path d="M79.2200 28.1406
L80.4716 29.3922
" />
<path d="M79.8965 57.6370
L78.5333 59.0002
" />
<path d="M80.4716 29.3922
L80.4716 30.6624
" />
<path d="M79.8965 31.2375
L79.8965 57.6370
" />
<path d="M79.2200 27.4800
L79.2200 28.1406
" />
<path d="M80.4716 30.6624
L79.8965 31.2375
" />
<path d="M79.4449 30.2449
L79.4449 55.4868
" />
<path d="M77.9316 59.2493
L78.2842 59.6019
" />
<path d="M78.4036 59.6019
L79.2288 60.4271
" />
<path d="M79.2200 30.0200
L79.4449 30.2449
" />
<path d="M78.2842 59.6019
L78.4036 59.6019
" />
<path d="M79.4449 55.4868
L77.9316 57.0001
" />
<path d="M77.9316 57.0001
L77.9316 59.2493
" />
<path d="M45.8243 48.0691
L45.8243 50.7299
" />
<path d="M47.2311 62.1066
L47.2311 63.6328
" />
<path d="M47.6593 48.0299
L47.4359 48.2533
" />
<path d="M44.6866 59.5621
L47.2311 62.1066
" />
<path d="M50.6982 28.7215
L49.9185 29.5012
" />
<path d="M45.8243 50.7299
L44.6866 51.8676
" />
<path d="M64.4339 26.1929
L54.3109 26.1929
" />
<path d="M47.6593 34.1119
L47.6593 48.0299
" />
<path d="M49.9185 29.5012
L49.9185 31.8527
" />
<path d="M63.9200 30.0200
L65.1900 28.7500
" />
<path d="M51.7823 28.7215
L50.6982 28.7215
" />
<path d="M65.1900 26.9490
L64.4339 26.1929
" />
<path d="M49.9185 31.8527
L47.6593 34.1119
" />
<path d="M54.3109 26.1929
L51.7823 28.7215
" />
<path d="M65.1900 28.7500
L65.1900 26.9490
" />
<path d="M44.6866 51.8676
L44.6866 59.5621
" />
<path d="M62.6283 56.0307
L54.1504 64.5086
" />
<path d="M62.6283 28.7717
L62.6283 56.0307
" />
<path d="M63.9200 27.4800
L62.6283 28.7717
" />
<path d="M71.5199 33.3029
L71.5199 53.0526
" />
<path d="M70.7152 32.4982
L71.5199 33.3029
" />
<path d="M35.2626 46.8483
L35.2626 32.4982
" />
<path d="M46.8785 31.7615
L48.6200 30.0200
" />
<path d="M46.2557 46.4639
L46.8785 45.8411
" />
<path d="M46.8785 45.8411
L46.8785 31.7615
" />
<path d="M32.7888 48.2636
L32.7888 63.6349
" />
<path d="M26.9985 53.8193
L31.9589 58.7797
" />
<path d="M46.9457 25.8057
L28.1053 25.8057
" />
<path d="M48.6200 27.4800
L46.9457 25.8057
" />
<path d="M26.9985 26.9125
L26.9985 53.8193
" />
<path d="M28.1053 25.8057
L26.9985 26.9125
" />
<path d="M31.9589 58.7797
L31.9589 63.4432
" />
<path d="M32.9669 42.0571
L32.9669 34.7448
" />
<path d="M32.9669 34.7448
L33.7791 33.9326
" />
<path d="M48.6628 54.2939
L49.0367 54.6678
" />
<path d="M48.6628 40.2700
L48.6628 54.2939
" />
<path d="M52.8243 53.2455
L52.7083 53.3615
" />
<path d="M49.2021 39.7307
L48.6628 40.2700
" />
<path d="M53.9118 53.2455
L52.8243 53.2455
" />
<path d="M57.1412 49.1690
L58.2131 48.0971
" />
<path d="M58.2131 48.0971
L58.2131 38.2812
" />
<path d="M58.1410 38.2091
L58.1410 35.1067
" />
<path d="M58.2131 38.2812
L58.1410 38.2091
" />
<path d="M58.1410 35.1067
L58.3572 34.8905
" />
<path d="M57.5765 55.0818
L57.5765 52.5498
" />
<path d="M57.7727 46.1192
L57.7029 46.0494
" />
<path d="M56.0219 49.9608
L56.5395 49.4432
" />
<path d="M57.7029 46.0494
L57.7029 32.4982
" />
<path d="M56.5395 48.8752
L57.7727 47.6420
" />
<path d="M57.5765 52.5498
L56.0219 50.9952
" />
<path d="M56.0219 50.9952
L56.0219 49.9608
" />
<path d="M56.5395 49.4432
L56.5395 48.8752
" />
<path d="M57.7727 47.6420
L57.7727 46.1192
" />
<path d="M52.8574 31.4571
L50.9079 33.4066
" />
<path d="M58.9841 37.5746
L58.9841 32.9257
" />
<path d="M50.9079 33.4066
L50.7017 33.4066
" />
<path d="M57.5155 31.4571
L52.8574 31.4571
" />
<path d="M58.9841 32.9257
L57.5155 31.4571
" />
<path d="M58.7491 37.8096
L58.9841 37.5746
" />
<path d="M34.5900 29.3212
L33.3200 28.0512
" />
<path d="M33.3200 28.0512
L33.3200 27.4800
" />
<path d="M44.1891 61.2917
L36.4662 53.5688
" />
<path d="M34.5900 30.5623
L34.5900 29.3212
" />
<path d="M36.4662 32.4385
L34.5900 30.5623
" />
<path d="M36.4662 53.5688
L36.4662 32.4385
" />
<path d="M76.6800 69.9800
L74.7927 68.0927
" />
<path d="M74.7927 68.0927
L74.7927 44.6601
" />
<path d="M69.9197 36.9018
L69.9197 41.2000
" />
<path d="M63.8743 61.5538
L61.7846 63.6435
" />
<path d="M70.8030 55.7027
L70.8030 53.4081
" />
<path d="M70.8030 53.4081
L65.8456 48.4507
" />
<path d="M65.8456 39.0096
L65.6439 38.8079
" />
<path d="M65.6439 33.0188
L65.8417 32.8210
" />
<path d="M65.6439 38.8079
L65.6439 33.0188
" />
<path d="M65.8456 48.4507
L65.8456 39.0096
" />
<path d="M36.8796 46.4226
L37.0820 46.6250
" />
<path d="M37.0820 32.4982
L36.8796 32.7006
" />
<path d="M36.8796 32.7006
L36.8796 46.4226
" />
<path d="M43.7440 40.9407
L44.1272 40.9407
" />
<path d="M61.2435 46.4737
L61.1046 46.3348
" />
<path d="M44.1772 40.8907
L44.2598 40.8907
" />
<path d="M42.2533 39.4500
L43.7440 40.9407
" />
<path d="M44.1563 43.9825
L44.1563 46.0831
" />
<path d="M45.2717 42.8671
L44.1563 43.9825
" />
<path d="M44.1272 40.9407
L44.1772 40.8907
" />
<path d="M61.1046 46.3348
L61.1046 44.1438
" />
<path d="M44.2598 40.8907
L45.2717 41.9026
" />
<path d="M42.2533 39.2380
L42.2533 39.4500
" />
<path d="M45.2717 41.9026
L45.2717 42.8671
" />
<path d="M64.4956 62.2442
L64.4956 56.6683
" />
<path d="M63.1000 63.6398
L64.4956 62.2442
" />
<path d="M64.4956 56.6683
L64.2587 56.4314
" />
<path d="M49.2897 48.8437
L49.2897 40.5497
" />
<path d="M70.6746 43.3683
L69.2434 44.7995
" />
<path d="M70.6746 35.7000
L70.6746 43.3683
" />
<path d="M58.0408 50.5273
L61.8659 46.7022
" />
<path d="M61.8659 46.7022
L61.8659 44.7995
" />
<path d="M57.0362 50.5273
L58.0408 50.5273
" />
<path d="M35.8645 43.2330
L35.8645 49.8947
" />
<path d="M73.8329 36.6628
L72.1736 38.3221
" />
<path d="M72.1736 38.3221
L72.1736 44.0281
" />
<path d="M52.9812 47.3648
L52.9812 51.3090
" />
<path d="M55.6757 46.5538
L55.6757 40.0239
" />
<path d="M55.5497 46.6798
L55.6757 46.5538
" />
<path d="M52.9812 51.3090
L51.3481 52.9421
" />
<path d="M53.6662 46.6798
L52.9812 47.3648
" />
<path d="M61.1384 41.2749
L59.9875 40.1240
" />
<path d="M61.1384 42.4242
L61.1384 41.2749
" />
<path d="M48.2350 35.0225
L50.7593 32.4982
" />
<path d="M48.2350 55.0234
L48.2350 35.0225
" />
<path d="M66.4579 44.5156
L66.4579 41.3947
" />
<path d="M70.5165 48.5742
L66.4579 44.5156
" />
<path d="M52.5795 50.8598
L52.5795 34.8863
" />
<path d="M50.4299 53.0094
L52.5795 50.8598
" />
<path d="M50.4299 54.1257
L50.4299 53.0094
" />
<path d="M48.6056 55.9500
L50.4299 54.1257
" />
<path d="M46.0981 55.9500
L48.6056 55.9500
" />
<path d="M55.6452 31.8681
L55.2888 32.2245
" />
<path d="M55.2888 39.5351
L54.8739 39.9500
" />
<path d="M55.2888 32.2245
L55.2888 39.5351
" />
<path d="M57.1710 46.3684
L57.1710 32.8688
" />
<path d="M57.1710 32.8688
L56.1703 31.8681
" />
<path d="M56.1703 31.8681
L55.6452 31.8681
" />
<path d="M51.1816 49.1444
L51.1816 43.2000
" />
<path d="M37.4813 41.9485
L38.2885 42.7557
" />
<path d="M49.6592 53.4228
L49.6592 50.6668
" />
<path d="M49.6592 50.6668
L51.1816 49.1444
" />
<path d="M38.2885 42.7557
L38.2885 53.5192
" />
<path d="M38.2885 53.5192
L38.8660 54.0967
" />
<path d="M40.1478 44.8610
L40.8008 44.8610
" />
<path d="M40.8008 44.8610
L40.9821 45.0423
" />
</g>
<g style="fill:none; 
stroke:#F2EDA1; stroke-width:0.0800; stroke-opacity:1; 
stroke-linecap:round; stroke-linejoin:round;">
<text x="53.4660" y="61.9780"
textLength="1.0705" font-size="1.0667" lengthAdjust="spacingAndGlyphs"
text-anchor="start" opacity="0" stroke-opacity="0">+</text>
<g class="stroked-text"><desc>+</desc>
<path d="M53.7091 61.5712
L54.3186 61.5712
" />
<path d="M54.0139 61.8759
L54.0139 61.2664
" />
</g></g>
<g style="fill:none; 
stroke:#F2EDA1; stroke-width:0.1270; stroke-opacity:1; 
stroke-linecap:round; stroke-linejoin:round;">
<path d="M61.7500 47.0000
L61.7500 47.9000
" />
<path d="M61.7500 47.9000
L63.5500 47.9000
" />
<path d="M63.5500 47.0000
L61.7500 47.0000
" />
<path d="M63.5500 47.9000
L63.5500 47.0000
" />
<path d="M31.1500 55.5000
L31.1500 56.4000
" />
<path d="M31.1500 56.4000
L32.9500 56.4000
" />
<path d="M32.9500 55.5000
L31.1500 55.5000
" />
<path d="M32.9500 56.4000
L32.9500 55.5000
" />
<path d="M41.3500 42.7500
L41.3500 43.6500
" />
<path d="M41.3500 43.6500
L43.1500 43.6500
" />
<path d="M43.1500 42.7500
L41.3500 42.7500
" />
<path d="M43.1500 43.6500
L43.1500 42.7500
" />
<path d="M46.4500 42.7500
L46.4500 43.6500
" />
<path d="M46.4500 43.6500
L48.2500 43.6500
" />
<path d="M48.2500 42.7500
L46.4500 42.7500
" />
<path d="M48.2500 43.6500
L48.2500 42.7500
" />
</g>
<g style="fill:none; 
stroke:#F2EDA1; stroke-width:0.2032; stroke-opacity:1; 
stroke-linecap:round; stroke-linejoin:round;">
<path d="M40.8276 35.1294
L40.8276 34.2706
" />
<path d="M41.9816 33.8896
L42.5184 33.8896
" />
<path d="M43.6724 34.2706
L43.6724 35.1294
" />
</g>
<g style="fill:none; 
stroke:#F2EDA1; stroke-width:0.1270; stroke-opacity:1; 
stroke-linecap:round; stroke-linejoin:round;">
<path d="M76.2500 34.0000
L76.2500 35.2000
" />
<path d="M76.2500 34.0000
L77.3500 34.0000
" />
<path d="M76.2500 35.2000
L76.3500 35.2000
" />
<path d="M78.5500 34.0000
L79.6500 34.0000
" />
<path d="M79.6500 34.0000
L79.6500 35.2000
" />
<path d="M79.6500 35.2000
L79.5500 35.2000
" />
<path d="M41.3500 59.7500
L41.3500 60.6500
" />
<path d="M41.3500 60.6500
L43.1500 60.6500
" />
<path d="M43.1500 59.7500
L41.3500 59.7500
" />
<path d="M43.1500 60.6500
L43.1500 59.7500
" />
</g>
<g style="fill:none; 
stroke:#F2EDA1; stroke-width:0.2032; stroke-opacity:1; 
stroke-linecap:round; stroke-linejoin:round;">
<path d="M45.9276 35.1294
L45.9276 34.2706
" />
<path d="M47.0816 33.8896
L47.6184 33.8896
" />
<path d="M48.7724 34.2706
L48.7724 35.1294
" />
</g>
<g style="fill:none; 
stroke:#F2EDA1; stroke-width:0.1270; stroke-opacity:1; 
stroke-linecap:round; stroke-linejoin:round;">
<path d="M56.6500 51.2500
L56.6500 52.1500
" />
<path d="M56.6500 52.1500
L58.4500 52.1500
" />
<path d="M58.4500 51.2500
L56.6500 51.2500
" />
<path d="M58.4500 52.1500
L58.4500 51.2500
" />
</g>
<g style="fill:none; 
stroke:#F2EDA1; stroke-width:0.2032; stroke-opacity:1; 
stroke-linecap:round; stroke-linejoin:round;">
<path d="M61.2276 35.1294
L61.2276 34.2706
" />
<path d="M62.3816 33.8896
L62.9184 33.8896
" />
<path d="M64.0724 34.2706
L64.0724 35.1294
" />
</g>
<g style="fill:none; 
stroke:#F2EDA1; stroke-width:0.1270; stroke-opacity:1; 
stroke-linecap:round; stroke-linejoin:round;">
<path d="M51.5500 55.5000
L51.5500 56.4000
" />
<path d="M51.5500 56.4000
L53.3500 56.4000
" />
<path d="M53.3500 55.5000
L51.5500 55.5000
" />
<path d="M53.3500 56.4000
L53.3500 55.5000
" />
<path d="M51.5500 51.2500
L51.5500 52.1500
" />
<path d="M51.5500 52.1500
L53.3500 52.1500
" />
<path d="M53.3500 51.2500
L51.5500 51.2500
" />
<path d="M53.3500 52.1500
L53.3500 51.2500
" />
<path d="M77.0500 38.5000
L77.0500 39.4000
" />
<path d="M77.0500 39.4000
L78.8500 39.4000
" />
<path d="M78.8500 38.5000
L77.0500 38.5000
" />
<path d="M78.8500 39.4000
L78.8500 38.5000
" />
<path d="M46.4500 51.2500
L46.4500 52.1500
" />
<path d="M46.4500 52.1500
L48.2500 52.1500
" />
<path d="M48.2500 51.2500
L46.4500 51.2500
" />
<path d="M48.2500 52.1500
L48.2500 51.2500
" />
</g>
<g style="fill:none; 
stroke:#F2EDA1; stroke-width:0.1524; stroke-opacity:1; 
stroke-linecap:round; stroke-linejoin:round;">
<path d="M26.9700 69.0910
L26.9700 73.4090
" />
<path d="M27.3510 68.7100
L36.7490 68.7100
" />
<path d="M27.3510 73.7900
L36.7490 73.7900
" />
<path d="M37.1300 69.0910
L37.1300 73.4090
" />
<path d="M27.3510 68.7100 A0.3810 0.3810 0.0 0 0 26.9700 69.0910" />
<path d="M26.9700 73.4090 A0.3810 0.3810 0.0 0 0 27.3510 73.7900" />
<path d="M37.1300 69.0910 A0.3810 0.3810 0.0 0 0 36.7490 68.7100" />
<path d="M36.7490 73.7900 A0.3810 0.3810 0.0 0 0 37.1300 73.4090" />
</g>
<g style="fill:none; 
stroke:#F2EDA1; stroke-width:0.1270; stroke-opacity:1; 
stroke-linecap:round; stroke-linejoin:round;">
<path d="M36.2500 51.2500
L36.2500 52.1500
" />
<path d="M36.2500 52.1500
L38.0500 52.1500
" />
<path d="M38.0500 51.2500
L36.2500 51.2500
" />
<path d="M38.0500 52.1500
L38.0500 51.2500
" />
<path d="M77.0500 59.7500
L77.0500 60.6500
" />
<path d="M77.0500 60.6500
L78.8500 60.6500
" />
<path d="M78.8500 59.7500
L77.0500 59.7500
" />
<path d="M78.8500 60.6500
L78.8500 59.7500
" />
</g>
<g style="fill:none; 
stroke:#F2EDA1; stroke-width:0.1524; stroke-opacity:1; 
stroke-linecap:round; stroke-linejoin:round;">
<path d="M57.5700 26.5910
L57.5700 30.9090
" />
<path d="M57.9510 26.2100
L67.3490 26.2100
" />
<path d="M57.9510 31.2900
L67.3490 31.2900
" />
<path d="M67.7300 26.5910
L67.7300 30.9090
" />
<path d="M57.9510 26.2100 A0.3810 0.3810 0.0 0 0 57.5700 26.5910" />
<path d="M57.5700 30.9090 A0.3810 0.3810 0.0 0 0 57.9510 31.2900" />
<path d="M67.7300 26.5910 A0.3810 0.3810 0.0 0 0 67.3490 26.2100" />
<path d="M67.3490 31.2900 A0.3810 0.3810 0.0 0 0 67.7300 30.9090" />
</g>
<g style="fill:none; 
stroke:#F2EDA1; stroke-width:0.1270; stroke-opacity:1; 
stroke-linecap:round; stroke-linejoin:round;">
<path d="M66.2500 59.4000
L66.2500 61.0000
" />
<path d="M66.2500 61.0000
L69.2500 61.0000
" />
<path d="M69.2500 59.4000
L66.2500 59.4000
" />
<path d="M69.2500 61.0000
L69.2500 59.4000
" />
<path d="M31.1500 59.7500
L31.1500 60.6500
" />
<path d="M31.1500 60.6500
L32.9500 60.6500
" />
<path d="M32.9500 59.7500
L31.1500 59.7500
" />
<path d="M32.9500 60.6500
L32.9500 59.7500
" />
<path d="M71.9500 38.5000
L71.9500 39.4000
" />
<path d="M71.9500 39.4000
L73.7500 39.4000
" />
<path d="M73.7500 38.5000
L71.9500 38.5000
" />
<path d="M73.7500 39.4000
L73.7500 38.5000
" />
<path d="M77.0500 47.0000
L77.0500 47.9000
" />
<path d="M77.0500 47.9000
L78.8500 47.9000
" />
<path d="M78.8500 47.0000
L77.0500 47.0000
" />
<path d="M78.8500 47.9000
L78.8500 47.0000
" />
<path d="M77.0500 55.5000
L77.0500 56.4000
" />
<path d="M77.0500 56.4000
L78.8500 56.4000
" />
<path d="M78.8500 55.5000
L77.0500 55.5000
" />
<path d="M78.8500 56.4000
L78.8500 55.5000
" />
<path d="M31.1500 51.2500
L31.1500 52.1500
" />
<path d="M31.1500 52.1500
L32.9500 52.1500
" />
<path d="M32.9500 51.2500
L31.1500 51.2500
" />
<path d="M32.9500 52.1500
L32.9500 51.2500
" />
<path d="M31.1500 47.0000
L31.1500 47.9000
" />
<path d="M31.1500 47.9000
L32.9500 47.9000
" />
<path d="M32.9500 47.0000
L31.1500 47.0000
" />
<path d="M32.9500 47.9000
L32.9500 47.0000
" />
<path d="M31.1500 64.0000
L31.1500 64.9000
" />
<path d="M31.1500 64.9000
L32.9500 64.9000
" />
<path d="M32.9500 64.0000
L31.1500 64.0000
" />
<path d="M32.9500 64.9000
L32.9500 64.0000
" />
<path d="M31.1500 42.7500
L31.1500 43.6500
" />
<path d="M31.1500 43.6500
L32.9500 43.6500
" />
<path d="M32.9500 42.7500
L31.1500 42.7500
" />
<path d="M32.9500 43.6500
L32.9500 42.7500
" />
<path d="M41.3500 47.0000
L41.3500 47.9000
" />
<path d="M41.3500 47.9000
L43.1500 47.9000
" />
<path d="M43.1500 47.0000
L41.3500 47.0000
" />
<path d="M43.1500 47.9000
L43.1500 47.0000
" />
<path d="M61.7500 51.2500
L61.7500 52.1500
" />
<path d="M61.7500 52.1500
L63.5500 52.1500
" />
<path d="M63.5500 51.2500
L61.7500 51.2500
" />
<path d="M63.5500 52.1500
L63.5500 51.2500
" />
<path d="M61.7500 59.7500
L61.7500 60.6500
" />
<path d="M61.7500 60.6500
L63.5500 60.6500
" />
<path d="M63.5500 59.7500
L61.7500 59.7500
" />
<path d="M63.5500 60.6500
L63.5500 59.7500
" />
<path d="M51.7500 58.4000
L51.7500 62.0000
" />
<path d="M51.7500 62.0000
L53.1500 62.0000
" />
<path d="M53.1500 58.4000
L51.7500 58.4000
" />
<path d="M53.1500 62.0000
L53.1500 58.4000
" />
</g>
<g style="fill:none; 
stroke:#F2EDA1; stroke-width:0.2032; stroke-opacity:1; 
stroke-linecap:round; stroke-linejoin:round;">
<path d="M56.1276 35.1294
L56.1276 34.2706
" />
<path d="M57.2816 33.8896
L57.8184 33.8896
" />
<path d="M58.9724 34.2706
L58.9724 35.1294
" />
</g>
<g style="fill:none; 
stroke:#F2EDA1; stroke-width:0.1270; stroke-opacity:1; 
stroke-linecap:round; stroke-linejoin:round;">
<path d="M66.8500 42.7500
L66.8500 43.6500
" />
<path d="M66.8500 43.6500
L68.6500 43.6500
" />
<path d="M68.6500 42.7500
L66.8500 42.7500
" />
<path d="M68.6500 43.6500
L68.6500 42.7500
" />
</g>
<g style="fill:none; 
stroke:#F2EDA1; stroke-width:0.1524; stroke-opacity:1; 
stroke-linecap:round; stroke-linejoin:round;">
<path d="M26.9700 26.5910
L26.9700 30.9090
" />
<path d="M27.3510 26.2100
L36.7490 26.2100
" />
<path d="M27.3510 31.2900
L36.7490 31.2900
" />
<path d="M37.1300 26.5910
L37.1300 30.9090
" />
<path d="M27.3510 26.2100 A0.3810 0.3810 0.0 0 0 26.9700 26.5910" />
<path d="M26.9700 30.9090 A0.3810 0.3810 0.0 0 0 27.3510 31.2900" />
<path d="M37.1300 26.5910 A0.3810 0.3810 0.0 0 0 36.7490 26.2100" />
<path d="M36.7490 31.2900 A0.3810 0.3810 0.0 0 0 37.1300 30.9090" />
<path d="M72.8700 26.5910
L72.8700 30.9090
" />
<path d="M73.2510 26.2100
L82.6490 26.2100
" />
<path d="M73.2510 31.2900
L82.6490 31.2900
" />
<path d="M83.0300 26.5910
L83.0300 30.9090
" />
<path d="M73.2510 26.2100 A0.3810 0.3810 0.0 0 0 72.8700 26.5910" />
<path d="M72.8700 30.9090 A0.3810 0.3810 0.0 0 0 73.2510 31.2900" />
<path d="M83.0300 26.5910 A0.3810 0.3810 0.0 0 0 82.6490 26.2100" />
<path d="M82.6490 31.2900 A0.3810 0.3810 0.0 0 0 83.0300 30.9090" />
<path d="M72.8700 69.0910
L72.8700 73.4090
" />
<path d="M73.2510 68.7100
L82.6490 68.7100
" />
<path d="M73.2510 73.7900
L82.6490 73.7900
" />
<path d="M83.0300 69.0910
L83.0300 73.4090
" />
<path d="M73.2510 68.7100 A0.3810 0.3810 0.0 0 0 72.8700 69.0910" />
<path d="M72.8700 73.4090 A0.3810 0.3810 0.0 0 0 73.2510 73.7900" />
<path d="M83.0300 69.0910 A0.3810 0.3810 0.0 0 0 82.6490 68.7100" />
<path d="M82.6490 73.7900 A0.3810 0.3810 0.0 0 0 83.0300 73.4090" />
</g>
<g style="fill:none; 
stroke:#F2EDA1; stroke-width:0.1270; stroke-opacity:1; 
stroke-linecap:round; stroke-linejoin:round;">
<path d="M36.2500 64.0000
L36.2500 64.9000
" />
<path d="M36.2500 64.9000
L38.0500 64.9000
" />
<path d="M38.0500 64.0000
L36.2500 64.0000
" />
<path d="M38.0500 64.9000
L38.0500 64.0000
" />
<path d="M66.8500 38.5000
L66.8500 39.4000
" />
<path d="M66.8500 39.4000
L68.6500 39.4000
" />
<path d="M68.6500 38.5000
L66.8500 38.5000
" />
<path d="M68.6500 39.4000
L68.6500 38.5000
" />
<path d="M41.3500 64.0000
L41.3500 64.9000
" />
<path d="M41.3500 64.9000
L43.1500 64.9000
" />
<path d="M43.1500 64.0000
L41.3500 64.0000
" />
<path d="M43.1500 64.9000
L43.1500 64.0000
" />
</g>
<g style="fill:none; 
stroke:#F2EDA1; stroke-width:0.2032; stroke-opacity:1; 
stroke-linecap:round; stroke-linejoin:round;">
<path d="M66.3276 35.1294
L66.3276 34.2706
" />
<path d="M67.4816 33.8896
L68.0184 33.8896
" />
<path d="M69.1724 34.2706
L69.1724 35.1294
" />
</g>
<g style="fill:none; 
stroke:#F2EDA1; stroke-width:0.1270; stroke-opacity:1; 
stroke-linecap:round; stroke-linejoin:round;">
<path d="M36.2500 47.0000
L36.2500 47.9000
" />
<path d="M36.2500 47.9000
L38.0500 47.9000
" />
<path d="M38.0500 47.0000
L36.2500 47.0000
" />
<path d="M38.0500 47.9000
L38.0500 47.0000
" />
<path d="M61.7500 38.5000
L61.7500 39.4000
" />
<path d="M61.7500 39.4000
L63.5500 39.4000
" />
<path d="M63.5500 38.5000
L61.7500 38.5000
" />
<path d="M63.5500 39.4000
L63.5500 38.5000
" />
<path d="M35.4500 38.2500
L35.4500 39.4500
" />
<path d="M35.4500 38.2500
L36.5500 38.2500
" />
<path d="M35.4500 39.4500
L35.5500 39.4500
" />
<path d="M37.7500 38.2500
L38.8500 38.2500
" />
<path d="M38.8500 38.2500
L38.8500 39.4500
" />
<path d="M38.8500 39.4500
L38.7500 39.4500
" />
<path d="M71.9500 47.0000
L71.9500 47.9000
" />
<path d="M71.9500 47.9000
L73.7500 47.9000
" />
<path d="M73.7500 47.0000
L71.9500 47.0000
" />
<path d="M73.7500 47.9000
L73.7500 47.0000
" />
<path d="M46.4500 64.0000
L46.4500 64.9000
" />
<path d="M46.4500 64.9000
L48.2500 64.9000
" />
<path d="M48.2500 64.0000
L46.4500 64.0000
" />
<path d="M48.2500 64.9000
L48.2500 64.0000
" />
<path d="M61.7500 55.5000
L61.7500 56.4000
" />
<path d="M61.7500 56.4000
L63.5500 56.4000
" />
<path d="M63.5500 55.5000
L61.7500 55.5000
" />
<path d="M63.5500 56.4000
L63.5500 55.5000
" />
<path d="M66.8500 55.5000
L66.8500 56.4000
" />
<path d="M66.8500 56.4000
L68.6500 56.4000
" />
<path d="M68.6500 55.5000
L66.8500 55.5000
" />
<path d="M68.6500 56.4000
L68.6500 55.5000
" />
<path d="M45.6500 38.2500
L45.6500 39.4500
" />
<path d="M45.6500 38.2500
L46.7500 38.2500
" />
<path d="M45.6500 39.4500
L45.7500 39.4500
" />
<path d="M47.9500 38.2500
L49.0500 38.2500
" />
<path d="M49.0500 38.2500
L49.0500 39.4500
" />
<path d="M49.0500 39.4500
L48.9500 39.4500
" />
<path d="M71.1500 34.0000
L71.1500 35.2000
" />
<path d="M71.1500 34.0000
L72.2500 34.0000
" />
<path d="M71.1500 35.2000
L71.2500 35.2000
" />
<path d="M73.4500 34.0000
L74.5500 34.0000
" />
<path d="M74.5500 34.0000
L74.5500 35.2000
" />
<path d="M74.5500 35.2000
L74.4500 35.2000
" />
<path d="M55.8500 38.2500
L55.8500 39.4500
" />
<path d="M55.8500 38.2500
L56.9500 38.2500
" />
<path d="M55.8500 39.4500
L55.9500 39.4500
" />
<path d="M58.1500 38.2500
L59.2500 38.2500
" />
<path d="M59.2500 38.2500
L59.2500 39.4500
" />
<path d="M59.2500 39.4500
L59.1500 39.4500
" />
</g>
<g style="fill:none; 
stroke:#F2EDA1; stroke-width:0.1524; stroke-opacity:1; 
stroke-linecap:round; stroke-linejoin:round;">
<path d="M57.5700 69.0910
L57.5700 73.4090
" />
<path d="M57.9510 68.7100
L67.3490 68.7100
" />
<path d="M57.9510 73.7900
L67.3490 73.7900
" />
<path d="M67.7300 69.0910
L67.7300 73.4090
" />
<path d="M57.9510 68.7100 A0.3810 0.3810 0.0 0 0 57.5700 69.0910" />
<path d="M57.5700 73.4090 A0.3810 0.3810 0.0 0 0 57.9510 73.7900" />
<path d="M67.7300 69.0910 A0.3810 0.3810 0.0 0 0 67.3490 68.7100" />
<path d="M67.3490 73.7900 A0.3810 0.3810 0.0 0 0 67.7300 73.4090" />
</g>
<g style="fill:none; 
stroke:#F2EDA1; stroke-width:0.1270; stroke-opacity:1; 
stroke-linecap:round; stroke-linejoin:round;">
<path d="M71.9500 42.7500
L71.9500 43.6500
" />
<path d="M71.9500 43.6500
L73.7500 43.6500
" />
<path d="M73.7500 42.7500
L71.9500 42.7500
" />
<path d="M73.7500 43.6500
L73.7500 42.7500
" />
<path d="M66.8500 47.0000
L66.8500 47.9000
" />
<path d="M66.8500 47.9000
L68.6500 47.9000
" />
<path d="M68.6500 47.0000
L66.8500 47.0000
" />
<path d="M68.6500 47.9000
L68.6500 47.0000
" />
<path d="M51.5500 64.0000
L51.5500 64.9000
" />
<path d="M51.5500 64.9000
L53.3500 64.9000
" />
<path d="M53.3500 64.0000
L51.5500 64.0000
" />
<path d="M53.3500 64.9000
L53.3500 64.0000
" />
<path d="M51.5500 47.0000
L51.5500 47.9000
" />
<path d="M51.5500 47.9000
L53.3500 47.9000
" />
<path d="M53.3500 47.0000
L51.5500 47.0000
" />
<path d="M53.3500 47.9000
L53.3500 47.0000
" />
</g>
<g style="fill:none; 
stroke:#F2EDA1; stroke-width:0.2032; stroke-opacity:1; 
stroke-linecap:round; stroke-linejoin:round;">
<path d="M30.6276 35.1294
L30.6276 34.2706
" />
<path d="M31.7816 33.8896
L32.3184 33.8896
" />
<path d="M33.4724 34.2706
L33.4724 35.1294
" />
</g>
<g style="fill:none; 
stroke:#F2EDA1; stroke-width:0.1270; stroke-opacity:1; 
stroke-linecap:round; stroke-linejoin:round;">
<path d="M36.2500 59.7500
L36.2500 60.6500
" />
<path d="M36.2500 60.6500
L38.0500 60.6500
" />
<path d="M38.0500 59.7500
L36.2500 59.7500
" />
<path d="M38.0500 60.6500
L38.0500 59.7500
" />
<path d="M40.5500 38.2500
L40.5500 39.4500
" />
<path d="M40.5500 38.2500
L41.6500 38.2500
" />
<path d="M40.5500 39.4500
L40.6500 39.4500
" />
<path d="M42.8500 38.2500
L43.9500 38.2500
" />
<path d="M43.9500 38.2500
L43.9500 39.4500
" />
<path d="M43.9500 39.4500
L43.8500 39.4500
" />
<path d="M41.3500 51.2500
L41.3500 52.1500
" />
<path d="M41.3500 52.1500
L43.1500 52.1500
" />
<path d="M43.1500 51.2500
L41.3500 51.2500
" />
<path d="M43.1500 52.1500
L43.1500 51.2500
" />
<path d="M41.3500 55.5000
L41.3500 56.4000
" />
<path d="M41.3500 56.4000
L43.1500 56.4000
" />
<path d="M43.1500 55.5000
L41.3500 55.5000
" />
<path d="M43.1500 56.4000
L43.1500 55.5000
" />
<path d="M36.2500 42.7500
L36.2500 43.6500
" />
<path d="M36.2500 43.6500
L38.0500 43.6500
" />
<path d="M38.0500 42.7500
L36.2500 42.7500
" />
<path d="M38.0500 43.6500
L38.0500 42.7500
" />
<path d="M71.9500 55.5000
L71.9500 56.4000
" />
<path d="M71.9500 56.4000
L73.7500 56.4000
" />
<path d="M73.7500 55.5000
L71.9500 55.5000
" />
<path d="M73.7500 56.4000
L73.7500 55.5000
" />
<path d="M56.6500 47.0000
L56.6500 47.9000
" />
<path d="M56.6500 47.9000
L58.4500 47.9000
" />
<path d="M58.4500 47.0000
L56.6500 47.0000
" />
<path d="M58.4500 47.9000
L58.4500 47.0000
" />
<path d="M77.0500 51.2500
L77.0500 52.1500
" />
<path d="M77.0500 52.1500
L78.8500 52.1500
" />
<path d="M78.8500 51.2500
L77.0500 51.2500
" />
<path d="M78.8500 52.1500
L78.8500 51.2500
" />
<path d="M46.4500 55.5000
L46.4500 56.4000
" />
<path d="M46.4500 56.4000
L48.2500 56.4000
" />
<path d="M48.2500 55.5000
L46.4500 55.5000
" />
<path d="M48.2500 56.4000
L48.2500 55.5000
" />
<path d="M71.9500 51.2500
L71.9500 52.1500
" />
<path d="M71.9500 52.1500
L73.7500 52.1500
" />
<path d="M73.7500 51.2500
L71.9500 51.2500
" />
<path d="M73.7500 52.1500
L73.7500 51.2500
" />
<path d="M77.0500 42.7500
L77.0500 43.6500
" />
<path d="M77.0500 43.6500
L78.8500 43.6500
" />
<path d="M78.8500 42.7500
L77.0500 42.7500
" />
<path d="M78.8500 43.6500
L78.8500 42.7500
" />
<path d="M61.7500 42.7500
L61.7500 43.6500
" />
<path d="M61.7500 43.6500
L63.5500 43.6500
" />
<path d="M63.5500 42.7500
L61.7500 42.7500
" />
<path d="M63.5500 43.6500
L63.5500 42.7500
" />
<path d="M71.9500 59.7500
L71.9500 60.6500
" />
<path d="M71.9500 60.6500
L73.7500 60.6500
" />
<path d="M73.7500 59.7500
L71.9500 59.7500
" />
<path d="M73.7500 60.6500
L73.7500 59.7500
" />
<path d="M36.2500 55.5000
L36.2500 56.4000
" />
<path d="M36.2500 56.4000
L38.0500 56.4000
" />
<path d="M38.0500 55.5000
L36.2500 55.5000
" />
<path d="M38.0500 56.4000
L38.0500 55.5000
" />
<path d="M51.5500 42.7500
L51.5500 43.6500
" />
<path d="M51.5500 43.6500
L53.3500 43.6500
" />
<path d="M53.3500 42.7500
L51.5500 42.7500
" />
<path d="M53.3500 43.6500
L53.3500 42.7500
" />
<path d="M50.7500 38.2500
L50.7500 39.4500
" />
<path d="M50.7500 38.2500
L51.8500 38.2500
" />
<path d="M50.7500 39.4500
L50.8500 39.4500
" />
<path d="M53.0500 38.2500
L54.1500 38.2500
" />
<path d="M54.1500 38.2500
L54.1500 39.4500
" />
<path d="M54.1500 39.4500
L54.0500 39.4500
" />
<path d="M56.6500 64.0000
L56.6500 64.9000
" />
<path d="M56.6500 64.9000
L58.4500 64.9000
" />
<path d="M58.4500 64.0000
L56.6500 64.0000
" />
<path d="M58.4500 64.9000
L58.4500 64.0000
" />
</g>
<g style="fill:none; 
stroke:#F2EDA1; stroke-width:0.1524; stroke-opacity:1; 
stroke-linecap:round; stroke-linejoin:round;">
<path d="M42.2700 26.5910
L42.2700 30.9090
" />
<path d="M42.6510 26.2100
L52.0490 26.2100
" />
<path d="M42.6510 31.2900
L52.0490 31.2900
" />
<path d="M52.4300 26.5910
L52.4300 30.9090
" />
<path d="M42.6510 26.2100 A0.3810 0.3810 0.0 0 0 42.2700 26.5910" />
<path d="M42.2700 30.9090 A0.3810 0.3810 0.0 0 0 42.6510 31.2900" />
<path d="M52.4300 26.5910 A0.3810 0.3810 0.0 0 0 52.0490 26.2100" />
<path d="M52.0490 31.2900 A0.3810 0.3810 0.0 0 0 52.4300 30.9090" />
</g>
<g style="fill:none; 
stroke:#F2EDA1; stroke-width:0.2032; stroke-opacity:1; 
stroke-linecap:round; stroke-linejoin:round;">
<path d="M35.7276 35.1294
L35.7276 34.2706
" />
<path d="M36.8816 33.8896
L37.4184 33.8896
" />
<path d="M38.5724 34.2706
L38.5724 35.1294
" />
</g>
<g style="fill:none; 
stroke:#F2EDA1; stroke-width:0.1524; stroke-opacity:1; 
stroke-linecap:round; stroke-linejoin:round;">
<path d="M42.2700 69.0910
L42.2700 73.4090
" />
<path d="M42.6510 68.7100
L52.0490 68.7100
" />
<path d="M42.6510 73.7900
L52.0490 73.7900
" />
<path d="M52.4300 69.0910
L52.4300 73.4090
" />
<path d="M42.6510 68.7100 A0.3810 0.3810 0.0 0 0 42.2700 69.0910" />
<path d="M42.2700 73.4090 A0.3810 0.3810 0.0 0 0 42.6510 73.7900" />
<path d="M52.4300 69.0910 A0.3810 0.3810 0.0 0 0 52.0490 68.7100" />
<path d="M52.0490 73.7900 A0.3810 0.3810 0.0 0 0 52.4300 73.4090" />
</g>
<g style="fill:none; 
stroke:#F2EDA1; stroke-width:0.1270; stroke-opacity:1; 
stroke-linecap:round; stroke-linejoin:round;">
<path d="M46.4500 47.0000
L46.4500 47.9000
" />
<path d="M46.4500 47.9000
L48.2500 47.9000
" />
<path d="M48.2500 47.0000
L46.4500 47.0000
" />
<path d="M48.2500 47.9000
L48.2500 47.0000
" />
<path d="M66.8500 51.2500
L66.8500 52.1500
" />
<path d="M66.8500 52.1500
L68.6500 52.1500
" />
<path d="M68.6500 51.2500
L66.8500 51.2500
" />
<path d="M68.6500 52.1500
L68.6500 51.2500
" />
<path d="M56.6500 55.5000
L56.6500 56.4000
" />
<path d="M56.6500 56.4000
L58.4500 56.4000
" />
<path d="M58.4500 55.5000
L56.6500 55.5000
" />
<path d="M58.4500 56.4000
L58.4500 55.5000
" />
<path d="M30.3500 38.2500
L30.3500 39.4500
" />
<path d="M30.3500 38.2500
L31.4500 38.2500
" />
<path d="M30.3500 39.4500
L30.4500 39.4500
" />
<path d="M32.6500 38.2500
L33.7500 38.2500
" />
<path d="M33.7500 38.2500
L33.7500 39.4500
" />
<path d="M33.7500 39.4500
L33.6500 39.4500
" />
<path d="M46.4500 59.7500
L46.4500 60.6500
" />
<path d="M46.4500 60.6500
L48.2500 60.6500
" />
<path d="M48.2500 59.7500
L46.4500 59.7500
" />
<path d="M48.2500 60.6500
L48.2500 59.7500
" />
<path d="M56.6500 59.7500
L56.6500 60.6500
" />
<path d="M56.6500 60.6500
L58.4500 60.6500
" />
<path d="M58.4500 59.7500
L56.6500 59.7500
" />
<path d="M58.4500 60.6500
L58.4500 59.7500
" />
<path d="M56.6500 42.7500
L56.6500 43.6500
" />
<path d="M56.6500 43.6500
L58.4500 43.6500
" />
<path d="M58.4500 42.7500
L56.6500 42.7500
" />
<path d="M58.4500 43.6500
L58.4500 42.7500
" />
<path d="M61.7500 64.0000
L61.7500 64.9000
" />
<path d="M61.7500 64.9000
L63.5500 64.9000
" />
<path d="M63.5500 64.0000
L61.7500 64.0000
" />
<path d="M63.5500 64.9000
L63.5500 64.0000
" />
</g>
<g style="fill:none; 
stroke:#F2EDA1; stroke-width:0.2032; stroke-opacity:1; 
stroke-linecap:round; stroke-linejoin:round;">
<path d="M51.0276 35.1294
L51.0276 34.2706
" />
<path d="M52.1816 33.8896
L52.7184 33.8896
" />
<path d="M53.8724 34.2706
L53.8724 35.1294
" />
</g>
<g style="fill:none; 
stroke:#D0D2CD; stroke-width:0.0500; stroke-opacity:1; 
stroke-linecap:round; stroke-linejoin:round;">
<path d="M23.5000 23.0000
L86.5000 23.0000
" />
<path d="M23.5000 77.0000
L23.5000 23.0000
" />
<path d="M86.5000 23.0000
L86.5000 77.0000
" />
<path d="M86.5000 77.0000
L23.5000 77.0000
" />
</g>
<g style="fill:#FFFFFF; fill-opacity:1.0000; stroke:none;">
<circle cx="59.4184" cy="58.3731" r="0.1500" /> 
<circle cx="59.1780" cy="46.6882" r="0.1500" /> 
<circle cx="31.3441" cy="61.0099" r="0.1500" /> 
<circle cx="31.7970" cy="55.1341" r="0.1500" /> 
<circle cx="31.7970" cy="31.9789" r="0.1500" /> 
<circle cx="43.1389" cy="61.4503" r="0.1500" /> 
<circle cx="33.4691" cy="43.2322" r="0.1500" /> 
<circle cx="33.9400" cy="55.7047" r="0.1500" /> 
<circle cx="66.2589" cy="37.9561" r="0.1500" /> 
<circle cx="77.5438" cy="40.6578" r="0.1500" /> 
<circle cx="75.6593" cy="39.1498" r="0.1500" /> 
<circle cx="49.9577" cy="38.3181" r="0.1500" /> 
<circle cx="49.9015" cy="44.0203" r="0.1500" /> 
<circle cx="67.8048" cy="40.0034" r="0.1500" /> 
<circle cx="40.7432" cy="42.5983" r="0.1500" /> 
<circle cx="40.5881" cy="36.9018" r="0.1500" /> 
<circle cx="54.5256" cy="44.8773" r="0.1500" /> 
<circle cx="54.2743" cy="43.2721" r="0.1500" /> 
<circle cx="77.0000" cy="36.6523" r="0.1500" /> 
<circle cx="76.5911" cy="42.0675" r="0.1500" /> 
<circle cx="64.7516" cy="42.6210" r="0.1500" /> 
<circle cx="41.3450" cy="34.8039" r="0.1500" /> 
<circle cx="64.7516" cy="39.8822" r="0.1500" /> 
<circle cx="44.6699" cy="42.5983" r="0.1500" /> 
<circle cx="39.9377" cy="39.0340" r="0.1500" /> 
<circle cx="61.3800" cy="43.2882" r="0.1500" /> 
<circle cx="39.9377" cy="35.9001" r="0.1500" /> 
<circle cx="59.7082" cy="42.6623" r="0.1500" /> 
<circle cx="60.2851" cy="47.4113" r="0.1500" /> 
<circle cx="44.1191" cy="32.8893" r="0.1500" /> 
<circle cx="44.8506" cy="47.4500" r="0.1500" /> 
<circle cx="38.9407" cy="32.4982" r="0.1500" /> 
<circle cx="38.9407" cy="47.7427" r="0.1500" /> 
<circle cx="64.7848" cy="35.5473" r="0.1500" /> 
<circle cx="73.3000" cy="50.8750" r="0.1500" /> 
<circle cx="75.9631" cy="41.5614" r="0.1500" /> 
<circle cx="77.9500" cy="46.6457" r="0.1500" /> 
<circle cx="49.8900" cy="24.9934" r="0.1500" /> 
<circle cx="45.0768" cy="35.0984" r="0.1500" /> 
<circle cx="54.9480" cy="47.4500" r="0.1500" /> 
<circle cx="50.8106" cy="34.3016" r="0.1500" /> 
<circle cx="47.0575" cy="46.6312" r="0.1500" /> 
<circle cx="45.6859" cy="32.5110" r="0.1500" /> 
<circle cx="51.8337" cy="41.0390" r="0.1500" /> 
<circle cx="51.4823" cy="50.9044" r="0.1500" /> 
<circle cx="50.5799" cy="36.9018" r="0.1500" /> 
<circle cx="50.5799" cy="48.2420" r="0.1500" /> 
<circle cx="67.4440" cy="31.9170" r="0.1500" /> 
<circle cx="45.2937" cy="52.1113" r="0.1500" /> 
<circle cx="78.4414" cy="52.5236" r="0.1500" /> 
<circle cx="65.0305" cy="55.7047" r="0.1500" /> 
<circle cx="65.0288" cy="32.4982" r="0.1500" /> 
<circle cx="64.1532" cy="34.4482" r="0.1500" /> 
<circle cx="63.7493" cy="55.2833" r="0.1500" /> 
<circle cx="55.6202" cy="53.6472" r="0.1500" /> 
<circle cx="55.9151" cy="32.4982" r="0.1500" /> 
<circle cx="44.4551" cy="39.8459" r="0.1500" /> 
<circle cx="46.6311" cy="52.5128" r="0.1500" /> 
<circle cx="53.9437" cy="37.0442" r="0.1500" /> 
<circle cx="53.9738" cy="51.7612" r="0.1500" /> 
<circle cx="47.6055" cy="52.9689" r="0.1500" /> 
<circle cx="66.4457" cy="34.8782" r="0.1500" /> 
<circle cx="56.0209" cy="37.0317" r="0.1500" /> 
<circle cx="54.8605" cy="50.3607" r="0.1500" /> 
<circle cx="44.8101" cy="50.6131" r="0.1500" /> 
<circle cx="54.8605" cy="54.2490" r="0.1500" /> 
<circle cx="78.5333" cy="59.0002" r="0.1500" /> 
<circle cx="79.2288" cy="60.4271" r="0.1500" /> 
<circle cx="47.4359" cy="48.2533" r="0.1500" /> 
<circle cx="47.2311" cy="63.6328" r="0.1500" /> 
<circle cx="45.8243" cy="48.0691" r="0.1500" /> 
<circle cx="54.1504" cy="64.5086" r="0.1500" /> 
<circle cx="71.5199" cy="53.0526" r="0.1500" /> 
<circle cx="70.7152" cy="32.4982" r="0.1500" /> 
<circle cx="35.2626" cy="32.4982" r="0.1500" /> 
<circle cx="35.2626" cy="46.8483" r="0.1500" /> 
<circle cx="32.7888" cy="63.6349" r="0.1500" /> 
<circle cx="32.7888" cy="48.2636" r="0.1500" /> 
<circle cx="46.2557" cy="46.4639" r="0.1500" /> 
<circle cx="31.9589" cy="63.4432" r="0.1500" /> 
<circle cx="32.9669" cy="42.0571" r="0.1500" /> 
<circle cx="33.7791" cy="33.9326" r="0.1500" /> 
<circle cx="49.2021" cy="39.7307" r="0.1500" /> 
<circle cx="49.0367" cy="54.6678" r="0.1500" /> 
<circle cx="53.9118" cy="53.2455" r="0.1500" /> 
<circle cx="52.7083" cy="53.3615" r="0.1500" /> 
<circle cx="57.1412" cy="49.1690" r="0.1500" /> 
<circle cx="58.3572" cy="34.8905" r="0.1500" /> 
<circle cx="57.7029" cy="32.4982" r="0.1500" /> 
<circle cx="57.5765" cy="55.0818" r="0.1500" /> 
<circle cx="58.7491" cy="37.8096" r="0.1500" /> 
<circle cx="50.7017" cy="33.4066" r="0.1500" /> 
<circle cx="44.1891" cy="61.2917" r="0.1500" /> 
<circle cx="74.7927" cy="44.6601" r="0.1500" /> 
<circle cx="69.9197" cy="41.2000" r="0.1500" /> 
<circle cx="69.9197" cy="36.9018" r="0.1500" /> 
<circle cx="63.8743" cy="61.5538" r="0.1500" /> 
<circle cx="61.7846" cy="63.6435" r="0.1500" /> 
<circle cx="70.8030" cy="55.7027" r="0.1500" /> 
<circle cx="65.8417" cy="32.8210" r="0.1500" /> 
<circle cx="37.0820" cy="32.4982" r="0.1500" /> 
<circle cx="37.0820" cy="46.6250" r="0.1500" /> 
<circle cx="44.1563" cy="46.0831" r="0.1500" /> 
<circle cx="42.2533" cy="39.2380" r="0.1500" /> 
<circle cx="61.2435" cy="46.4737" r="0.1500" /> 
<circle cx="61.1046" cy="44.1438" r="0.1500" /> 
<circle cx="63.1000" cy="63.6398" r="0.1500" /> 
<circle cx="64.2587" cy="56.4314" r="0.1500" /> 
<circle cx="49.2897" cy="40.5497" r="0.1500" /> 
<circle cx="49.2897" cy="48.8437" r="0.1500" /> 
<circle cx="69.2434" cy="44.7995" r="0.1500" /> 
<circle cx="57.0362" cy="50.5273" r="0.1500" /> 
<circle cx="70.6746" cy="35.7000" r="0.1500" /> 
<circle cx="61.8659" cy="44.7995" r="0.1500" /> 
<circle cx="35.8645" cy="43.2330" r="0.1500" /> 
<circle cx="35.8645" cy="49.8947" r="0.1500" /> 
<circle cx="73.8329" cy="36.6628" r="0.1500" /> 
<circle cx="72.1736" cy="44.0281" r="0.1500" /> 
<circle cx="55.5497" cy="46.6798" r="0.1500" /> 
<circle cx="51.3481" cy="52.9421" r="0.1500" /> 
<circle cx="53.6662" cy="46.6798" r="0.1500" /> 
<circle cx="55.6757" cy="40.0239" r="0.1500" /> 
<circle cx="61.1384" cy="42.4242" r="0.1500" /> 
<circle cx="59.9875" cy="40.1240" r="0.1500" /> 
<circle cx="50.7593" cy="32.4982" r="0.1500" /> 
<circle cx="48.2350" cy="55.0234" r="0.1500" /> 
<circle cx="70.5165" cy="48.5742" r="0.1500" /> 
<circle cx="66.4579" cy="41.3947" r="0.1500" /> 
<circle cx="46.0981" cy="55.9500" r="0.1500" /> 
<circle cx="52.5795" cy="34.8863" r="0.1500" /> 
<circle cx="57.1710" cy="46.3684" r="0.1500" /> 
<circle cx="54.8739" cy="39.9500" r="0.1500" /> 
<circle cx="37.4813" cy="41.9485" r="0.1500" /> 
<circle cx="49.6592" cy="53.4228" r="0.1500" /> 
<circle cx="38.8660" cy="54.0967" r="0.1500" /> 
<circle cx="51.1816" cy="43.2000" r="0.1500" /> 
<circle cx="40.9821" cy="45.0423" r="0.1500" /> 
<circle cx="40.1478" cy="44.8610" r="0.1500" /> 
</g>
<g style="fill:#FFFFFF; fill-opacity:1.0000; stroke:none;">
<circle cx="28.2400" cy="72.5200" r="0.5080" /> 
</g>
<g style="fill:#FFFFFF; fill-opacity:1.0000; stroke:none;">
<circle cx="28.2400" cy="69.9800" r="0.5080" /> 
</g>
<g style="fill:#FFFFFF; fill-opacity:1.0000; stroke:none;">
<circle cx="30.7800" cy="72.5200" r="0.5080" /> 
</g>
<g style="fill:#FFFFFF; fill-opacity:1.0000; stroke:none;">
<circle cx="30.7800" cy="69.9800" r="0.5080" /> 
</g>
<g style="fill:#FFFFFF; fill-opacity:1.0000; stroke:none;">
<circle cx="33.3200" cy="72.5200" r="0.5080" /> 
</g>
<g style="fill:#FFFFFF; fill-opacity:1.0000; stroke:none;">
<circle cx="33.3200" cy="69.9800" r="0.5080" /> 
</g>
<g style="fill:#FFFFFF; fill-opacity:1.0000; stroke:none;">
<circle cx="35.8600" cy="72.5200" r="0.5080" /> 
</g>
<g style="fill:#FFFFFF; fill-opacity:1.0000; stroke:none;">
<circle cx="35.8600" cy="69.9800" r="0.5080" /> 
</g>
<g style="fill:#FFFFFF; fill-opacity:1.0000; stroke:none;">
<circle cx="58.8400" cy="30.0200" r="0.5080" /> 
</g>
<g style="fill:#FFFFFF; fill-opacity:1.0000; stroke:none;">
<circle cx="58.8400" cy="27.4800" r="0.5080" /> 
</g>
<g style="fill:#FFFFFF; fill-opacity:1.0000; stroke:none;">
<circle cx="61.3800" cy="30.0200" r="0.5080" /> 
</g>
<g style="fill:#FFFFFF; fill-opacity:1.0000; stroke:none;">
<circle cx="61.3800" cy="27.4800" r="0.5080" /> 
</g>
<g style="fill:#FFFFFF; fill-opacity:1.0000; stroke:none;">
<circle cx="63.9200" cy="30.0200" r="0.5080" /> 
</g>
<g style="fill:#FFFFFF; fill-opacity:1.0000; stroke:none;">
<circle cx="63.9200" cy="27.4800" r="0.5080" /> 
</g>
<g style="fill:#FFFFFF; fill-opacity:1.0000; stroke:none;">
<circle cx="66.4600" cy="30.0200" r="0.5080" /> 
</g>
<g style="fill:#FFFFFF; fill-opacity:1.0000; stroke:none;">
<circle cx="66.4600" cy="27.4800" r="0.5080" /> 
</g>
<g style="fill:#FFFFFF; fill-opacity:1.0000; stroke:none;">
<circle cx="28.2400" cy="30.0200" r="0.5080" /> 
</g>
<g style="fill:#FFFFFF; fill-opacity:1.0000; stroke:none;">
<circle cx="28.2400" cy="27.4800" r="0.5080" /> 
</g>
<g style="fill:#FFFFFF; fill-opacity:1.0000; stroke:none;">
<circle cx="30.7800" cy="30.0200" r="0.5080" /> 
</g>
<g style="fill:#FFFFFF; fill-opacity:1.0000; stroke:none;">
<circle cx="30.7800" cy="27.4800" r="0.5080" /> 
</g>
<g style="fill:#FFFFFF; fill-opacity:1.0000; stroke:none;">
<circle cx="33.3200" cy="30.0200" r="0.5080" /> 
</g>
<g style="fill:#FFFFFF; fill-opacity:1.0000; stroke:none;">
<circle cx="33.3200" cy="27.4800" r="0.5080" /> 
</g>
<g style="fill:#FFFFFF; fill-opacity:1.0000; stroke:none;">
<circle cx="35.8600" cy="30.0200" r="0.5080" /> 
</g>
<g style="fill:#FFFFFF; fill-opacity:1.0000; stroke:none;">
<circle cx="35.8600" cy="27.4800" r="0.5080" /> 
</g>
<g style="fill:#FFFFFF; fill-opacity:1.0000; stroke:none;">
<circle cx="74.1400" cy="30.0200" r="0.5080" /> 
</g>
<g style="fill:#FFFFFF; fill-opacity:1.0000; stroke:none;">
<circle cx="74.1400" cy="27.4800" r="0.5080" /> 
</g>
<g style="fill:#FFFFFF; fill-opacity:1.0000; stroke:none;">
<circle cx="76.6800" cy="30.0200" r="0.5080" /> 
</g>
<g style="fill:#FFFFFF; fill-opacity:1.0000; stroke:none;">
<circle cx="76.6800" cy="27.4800" r="0.5080" /> 
</g>
<g style="fill:#FFFFFF; fill-opacity:1.0000; stroke:none;">
<circle cx="79.2200" cy="30.0200" r="0.5080" /> 
</g>
<g style="fill:#FFFFFF; fill-opacity:1.0000; stroke:none;">
<circle cx="79.2200" cy="27.4800" r="0.5080" /> 
</g>
<g style="fill:#FFFFFF; fill-opacity:1.0000; stroke:none;">
<circle cx="81.7600" cy="30.0200" r="0.5080" /> 
</g>
<g style="fill:#FFFFFF; fill-opacity:1.0000; stroke:none;">
<circle cx="81.7600" cy="27.4800" r="0.5080" /> 
</g>
<g style="fill:#FFFFFF; fill-opacity:1.0000; stroke:none;">
<circle cx="74.1400" cy="72.5200" r="0.5080" /> 
</g>
<g style="fill:#FFFFFF; fill-opacity:1.0000; stroke:none;">
<circle cx="74.1400" cy="69.9800" r="0.5080" /> 
</g>
<g style="fill:#FFFFFF; fill-opacity:1.0000; stroke:none;">
<circle cx="76.6800" cy="72.5200" r="0.5080" /> 
</g>
<g style="fill:#FFFFFF; fill-opacity:1.0000; stroke:none;">
<circle cx="76.6800" cy="69.9800" r="0.5080" /> 
</g>
<g style="fill:#FFFFFF; fill-opacity:1.0000; stroke:none;">
<circle cx="79.2200" cy="72.5200" r="0.5080" /> 
</g>
<g style="fill:#FFFFFF; fill-opacity:1.0000; stroke:none;">
<circle cx="79.2200" cy="69.9800" r="0.5080" /> 
</g>
<g style="fill:#FFFFFF; fill-opacity:1.0000; stroke:none;">
<circle cx="81.7600" cy="72.5200" r="0.5080" /> 
</g>
<g style="fill:#FFFFFF; fill-opacity:1.0000; stroke:none;">
<circle cx="81.7600" cy="69.9800" r="0.5080" /> 
</g>
<g style="fill:#FFFFFF; fill-opacity:1.0000; stroke:none;">
<circle cx="58.8400" cy="72.5200" r="0.5080" /> 
</g>
<g style="fill:#FFFFFF; fill-opacity:1.0000; stroke:none;">
<circle cx="58.8400" cy="69.9800" r="0.5080" /> 
</g>
<g style="fill:#FFFFFF; fill-opacity:1.0000; stroke:none;">
<circle cx="61.3800" cy="72.5200" r="0.5080" /> 
</g>
<g style="fill:#FFFFFF; fill-opacity:1.0000; stroke:none;">
<circle cx="61.3800" cy="69.9800" r="0.5080" /> 
</g>
<g style="fill:#FFFFFF; fill-opacity:1.0000; stroke:none;">
<circle cx="63.9200" cy="72.5200" r="0.5080" /> 
</g>
<g style="fill:#FFFFFF; fill-opacity:1.0000; stroke:none;">
<circle cx="63.9200" cy="69.9800" r="0.5080" /> 
</g>
<g style="fill:#FFFFFF; fill-opacity:1.0000; stroke:none;">
<circle cx="66.4600" cy="72.5200" r="0.5080" /> 
</g>
<g style="fill:#FFFFFF; fill-opacity:1.0000; stroke:none;">
<circle cx="66.4600" cy="69.9800" r="0.5080" /> 
</g>
<g style="fill:#FFFFFF; fill-opacity:1.0000; stroke:none;">
<circle cx="43.5400" cy="30.0200" r="0.5080" /> 
</g>
<g style="fill:#FFFFFF; fill-opacity:1.0000; stroke:none;">
<circle cx="43.5400" cy="27.4800" r="0.5080" /> 
</g>
<g style="fill:#FFFFFF; fill-opacity:1.0000; stroke:none;">
<circle cx="46.0800" cy="30.0200" r="0.5080" /> 
</g>
<g style="fill:#FFFFFF; fill-opacity:1.0000; stroke:none;">
<circle cx="46.0800" cy="27.4800" r="0.5080" /> 
</g>
<g style="fill:#FFFFFF; fill-opacity:1.0000; stroke:none;">
<circle cx="48.6200" cy="30.0200" r="0.5080" /> 
</g>
<g style="fill:#FFFFFF; fill-opacity:1.0000; stroke:none;">
<circle cx="48.6200" cy="27.4800" r="0.5080" /> 
</g>
<g style="fill:#FFFFFF; fill-opacity:1.0000; stroke:none;">
<circle cx="51.1600" cy="30.0200" r="0.5080" /> 
</g>
<g style="fill:#FFFFFF; fill-opacity:1.0000; stroke:none;">
<circle cx="51.1600" cy="27.4800" r="0.5080" /> 
</g>
<g style="fill:#FFFFFF; fill-opacity:1.0000; stroke:none;">
<circle cx="43.5400" cy="72.5200" r="0.5080" /> 
</g>
<g style="fill:#FFFFFF; fill-opacity:1.0000; stroke:none;">
<circle cx="43.5400" cy="69.9800" r="0.5080" /> 
</g>
<g style="fill:#FFFFFF; fill-opacity:1.0000; stroke:none;">
<circle cx="46.0800" cy="72.5200" r="0.5080" /> 
</g>
<g style="fill:#FFFFFF; fill-opacity:1.0000; stroke:none;">
<circle cx="46.0800" cy="69.9800" r="0.5080" /> 
</g>
<g style="fill:#FFFFFF; fill-opacity:1.0000; stroke:none;">
<circle cx="48.6200" cy="72.5200" r="0.5080" /> 
</g>
<g style="fill:#FFFFFF; fill-opacity:1.0000; stroke:none;">
<circle cx="48.6200" cy="69.9800" r="0.5080" /> 
</g>
<g style="fill:#FFFFFF; fill-opacity:1.0000; stroke:none;">
<circle cx="51.1600" cy="72.5200" r="0.5080" /> 
</g>
<g style="fill:#FFFFFF; fill-opacity:1.0000; stroke:none;">
<circle cx="51.1600" cy="69.9800" r="0.5080" /> 
</g> 
<text data-ref="R98" x="62.6500" y="45.6500" font-family="sans-serif" font-size="1" text-anchor="middle" fill="white" stroke="#091320" stroke-width="0.25" paint-order="stroke">R98</text><circle data-anchor="R98" cx="62.650000" cy="47.450000" r="0.001" opacity="0"/><text data-ref="R91" x="32.0500" y="54.1500" font-family="sans-serif" font-size="1" text-anchor="middle" fill="white" stroke="#091320" stroke-width="0.25" paint-order="stroke">R91</text><circle data-anchor="R91" cx="32.050000" cy="55.950000" r="0.001" opacity="0"/><text data-ref="R84" x="42.2500" y="41.4000" font-family="sans-serif" font-size="1" text-anchor="middle" fill="white" stroke="#091320" stroke-width="0.25" paint-order="stroke">R84</text><circle data-anchor="R84" cx="42.250000" cy="43.200000" r="0.001" opacity="0"/><text data-ref="R85" x="47.3500" y="41.4000" font-family="sans-serif" font-size="1" text-anchor="middle" fill="white" stroke="#091320" stroke-width="0.25" paint-order="stroke">R85</text><circle data-anchor="R85" cx="47.350000" cy="43.200000" r="0.001" opacity="0"/><text data-ref="Q4" x="42.2500" y="32.9000" font-family="sans-serif" font-size="1" text-anchor="middle" fill="white" stroke="#091320" stroke-width="0.25" paint-order="stroke">Q4</text><circle data-anchor="Q4" cx="42.250000" cy="34.700000" r="0.001" opacity="0"/><text data-ref="LED11" x="77.9500" y="32.9000" font-family="sans-serif" font-size="1" text-anchor="middle" fill="white" stroke="#091320" stroke-width="0.25" paint-order="stroke">LED11</text><circle data-anchor="LED11" cx="77.950000" cy="34.700000" r="0.001" opacity="0"/><text data-ref="R124" x="42.2500" y="58.4000" font-family="sans-serif" font-size="1" text-anchor="middle" fill="white" stroke="#091320" stroke-width="0.25" paint-order="stroke">R124</text><circle data-anchor="R124" cx="42.250000" cy="60.200000" r="0.001" opacity="0"/><text data-ref="Q5" x="47.3500" y="32.9000" font-family="sans-serif" font-size="1" text-anchor="middle" fill="white" stroke="#091320" stroke-width="0.25" paint-order="stroke">Q5</text><circle data-anchor="Q5" cx="47.350000" cy="34.700000" r="0.001" opacity="0"/><text data-ref="R107" x="57.5500" y="49.9000" font-family="sans-serif" font-size="1" text-anchor="middle" fill="white" stroke="#091320" stroke-width="0.25" paint-order="stroke">R107</text><circle data-anchor="R107" cx="57.550000" cy="51.700000" r="0.001" opacity="0"/><text data-ref="Q8" x="62.6500" y="32.9000" font-family="sans-serif" font-size="1" text-anchor="middle" fill="white" stroke="#091320" stroke-width="0.25" paint-order="stroke">Q8</text><circle data-anchor="Q8" cx="62.650000" cy="34.700000" r="0.001" opacity="0"/><text data-ref="R116" x="52.4500" y="54.1500" font-family="sans-serif" font-size="1" text-anchor="middle" fill="white" stroke="#091320" stroke-width="0.25" paint-order="stroke">R116</text><circle data-anchor="R116" cx="52.450000" cy="55.950000" r="0.001" opacity="0"/><text data-ref="R106" x="52.4500" y="49.9000" font-family="sans-serif" font-size="1" text-anchor="middle" fill="white" stroke="#091320" stroke-width="0.25" paint-order="stroke">R106</text><circle data-anchor="R106" cx="52.450000" cy="51.700000" r="0.001" opacity="0"/><text data-ref="R81" x="77.9500" y="37.1500" font-family="sans-serif" font-size="1" text-anchor="middle" fill="white" stroke="#091320" stroke-width="0.25" paint-order="stroke">R81</text><circle data-anchor="R81" cx="77.950000" cy="38.950000" r="0.001" opacity="0"/><text data-ref="R105" x="47.3500" y="49.9000" font-family="sans-serif" font-size="1" text-anchor="middle" fill="white" stroke="#091320" stroke-width="0.25" paint-order="stroke">R105</text><circle data-anchor="R105" cx="47.350000" cy="51.700000" r="0.001" opacity="0"/><text data-ref="J105" x="32.0500" y="69.4500" font-family="sans-serif" font-size="1" text-anchor="middle" fill="white" stroke="#091320" stroke-width="0.25" paint-order="stroke">J105</text><circle data-anchor="J105" cx="32.050000" cy="71.250000" r="0.001" opacity="0"/><text data-ref="R103" x="37.1500" y="49.9000" font-family="sans-serif" font-size="1" text-anchor="middle" fill="white" stroke="#091320" stroke-width="0.25" paint-order="stroke">R103</text><circle data-anchor="R103" cx="37.150000" cy="51.700000" r="0.001" opacity="0"/><text data-ref="R16" x="77.9500" y="58.4000" font-family="sans-serif" font-size="1" text-anchor="middle" fill="white" stroke="#091320" stroke-width="0.25" paint-order="stroke">R16</text><circle data-anchor="R16" cx="77.950000" cy="60.200000" r="0.001" opacity="0"/><text data-ref="J103" x="62.6500" y="26.9500" font-family="sans-serif" font-size="1" text-anchor="middle" fill="white" stroke="#091320" stroke-width="0.25" paint-order="stroke">J103</text><circle data-anchor="J103" cx="62.650000" cy="28.750000" r="0.001" opacity="0"/><text data-ref="C50" x="67.7500" y="58.4000" font-family="sans-serif" font-size="1" text-anchor="middle" fill="white" stroke="#091320" stroke-width="0.25" paint-order="stroke">C50</text><circle data-anchor="C50" cx="67.750000" cy="60.200000" r="0.001" opacity="0"/><text data-ref="R122" x="32.0500" y="58.4000" font-family="sans-serif" font-size="1" text-anchor="middle" fill="white" stroke="#091320" stroke-width="0.25" paint-order="stroke">R122</text><circle data-anchor="R122" cx="32.050000" cy="60.200000" r="0.001" opacity="0"/><text data-ref="R80" x="72.8500" y="37.1500" font-family="sans-serif" font-size="1" text-anchor="middle" fill="white" stroke="#091320" stroke-width="0.25" paint-order="stroke">R80</text><circle data-anchor="R80" cx="72.850000" cy="38.950000" r="0.001" opacity="0"/><text data-ref="R101" x="77.9500" y="45.6500" font-family="sans-serif" font-size="1" text-anchor="middle" fill="white" stroke="#091320" stroke-width="0.25" paint-order="stroke">R101</text><circle data-anchor="R101" cx="77.950000" cy="47.450000" r="0.001" opacity="0"/><text data-ref="R121" x="77.9500" y="54.1500" font-family="sans-serif" font-size="1" text-anchor="middle" fill="white" stroke="#091320" stroke-width="0.25" paint-order="stroke">R121</text><circle data-anchor="R121" cx="77.950000" cy="55.950000" r="0.001" opacity="0"/><text data-ref="R102" x="32.0500" y="49.9000" font-family="sans-serif" font-size="1" text-anchor="middle" fill="white" stroke="#091320" stroke-width="0.25" paint-order="stroke">R102</text><circle data-anchor="R102" cx="32.050000" cy="51.700000" r="0.001" opacity="0"/><text data-ref="R92" x="32.0500" y="45.6500" font-family="sans-serif" font-size="1" text-anchor="middle" fill="white" stroke="#091320" stroke-width="0.25" paint-order="stroke">R92</text><circle data-anchor="R92" cx="32.050000" cy="47.450000" r="0.001" opacity="0"/><text data-ref="R15" x="32.0500" y="62.6500" font-family="sans-serif" font-size="1" text-anchor="middle" fill="white" stroke="#091320" stroke-width="0.25" paint-order="stroke">R15</text><circle data-anchor="R15" cx="32.050000" cy="64.450000" r="0.001" opacity="0"/><text data-ref="R90" x="32.0500" y="41.4000" font-family="sans-serif" font-size="1" text-anchor="middle" fill="white" stroke="#091320" stroke-width="0.25" paint-order="stroke">R90</text><circle data-anchor="R90" cx="32.050000" cy="43.200000" r="0.001" opacity="0"/><text data-ref="R94" x="42.2500" y="45.6500" font-family="sans-serif" font-size="1" text-anchor="middle" fill="white" stroke="#091320" stroke-width="0.25" paint-order="stroke">R94</text><circle data-anchor="R94" cx="42.250000" cy="47.450000" r="0.001" opacity="0"/><text data-ref="R108" x="62.6500" y="49.9000" font-family="sans-serif" font-size="1" text-anchor="middle" fill="white" stroke="#091320" stroke-width="0.25" paint-order="stroke">R108</text><circle data-anchor="R108" cx="62.650000" cy="51.700000" r="0.001" opacity="0"/><text data-ref="C46" x="62.6500" y="58.4000" font-family="sans-serif" font-size="1" text-anchor="middle" fill="white" stroke="#091320" stroke-width="0.25" paint-order="stroke">C46</text><circle data-anchor="C46" cx="62.650000" cy="60.200000" r="0.001" opacity="0"/><text data-ref="LED6" x="52.4500" y="58.4000" font-family="sans-serif" font-size="1" text-anchor="middle" fill="white" stroke="#091320" stroke-width="0.25" paint-order="stroke">LED6</text><circle data-anchor="LED6" cx="52.450000" cy="60.200000" r="0.001" opacity="0"/><text data-ref="Q7" x="57.5500" y="32.9000" font-family="sans-serif" font-size="1" text-anchor="middle" fill="white" stroke="#091320" stroke-width="0.25" paint-order="stroke">Q7</text><circle data-anchor="Q7" cx="57.550000" cy="34.700000" r="0.001" opacity="0"/><text data-ref="R89" x="67.7500" y="41.4000" font-family="sans-serif" font-size="1" text-anchor="middle" fill="white" stroke="#091320" stroke-width="0.25" paint-order="stroke">R89</text><circle data-anchor="R89" cx="67.750000" cy="43.200000" r="0.001" opacity="0"/><text data-ref="J101" x="32.0500" y="26.9500" font-family="sans-serif" font-size="1" text-anchor="middle" fill="white" stroke="#091320" stroke-width="0.25" paint-order="stroke">J101</text><circle data-anchor="J101" cx="32.050000" cy="28.750000" r="0.001" opacity="0"/><text data-ref="J104" x="77.9500" y="26.9500" font-family="sans-serif" font-size="1" text-anchor="middle" fill="white" stroke="#091320" stroke-width="0.25" paint-order="stroke">J104</text><circle data-anchor="J104" cx="77.950000" cy="28.750000" r="0.001" opacity="0"/><text data-ref="J108" x="77.9500" y="69.4500" font-family="sans-serif" font-size="1" text-anchor="middle" fill="white" stroke="#091320" stroke-width="0.25" paint-order="stroke">J108</text><circle data-anchor="J108" cx="77.950000" cy="71.250000" r="0.001" opacity="0"/><text data-ref="R20" x="37.1500" y="62.6500" font-family="sans-serif" font-size="1" text-anchor="middle" fill="white" stroke="#091320" stroke-width="0.25" paint-order="stroke">R20</text><circle data-anchor="R20" cx="37.150000" cy="64.450000" r="0.001" opacity="0"/><text data-ref="R79" x="67.7500" y="37.1500" font-family="sans-serif" font-size="1" text-anchor="middle" fill="white" stroke="#091320" stroke-width="0.25" paint-order="stroke">R79</text><circle data-anchor="R79" cx="67.750000" cy="38.950000" r="0.001" opacity="0"/><text data-ref="R13" x="42.2500" y="62.6500" font-family="sans-serif" font-size="1" text-anchor="middle" fill="white" stroke="#091320" stroke-width="0.25" paint-order="stroke">R13</text><circle data-anchor="R13" cx="42.250000" cy="64.450000" r="0.001" opacity="0"/><text data-ref="Q9" x="67.7500" y="32.9000" font-family="sans-serif" font-size="1" text-anchor="middle" fill="white" stroke="#091320" stroke-width="0.25" paint-order="stroke">Q9</text><circle data-anchor="Q9" cx="67.750000" cy="34.700000" r="0.001" opacity="0"/><text data-ref="R93" x="37.1500" y="45.6500" font-family="sans-serif" font-size="1" text-anchor="middle" fill="white" stroke="#091320" stroke-width="0.25" paint-order="stroke">R93</text><circle data-anchor="R93" cx="37.150000" cy="47.450000" r="0.001" opacity="0"/><text data-ref="R78" x="62.6500" y="37.1500" font-family="sans-serif" font-size="1" text-anchor="middle" fill="white" stroke="#091320" stroke-width="0.25" paint-order="stroke">R78</text><circle data-anchor="R78" cx="62.650000" cy="38.950000" r="0.001" opacity="0"/><text data-ref="LED13" x="37.1500" y="37.1500" font-family="sans-serif" font-size="1" text-anchor="middle" fill="white" stroke="#091320" stroke-width="0.25" paint-order="stroke">LED13</text><circle data-anchor="LED13" cx="37.150000" cy="38.950000" r="0.001" opacity="0"/><text data-ref="R100" x="72.8500" y="45.6500" font-family="sans-serif" font-size="1" text-anchor="middle" fill="white" stroke="#091320" stroke-width="0.25" paint-order="stroke">R100</text><circle data-anchor="R100" cx="72.850000" cy="47.450000" r="0.001" opacity="0"/><text data-ref="R17" x="47.3500" y="62.6500" font-family="sans-serif" font-size="1" text-anchor="middle" fill="white" stroke="#091320" stroke-width="0.25" paint-order="stroke">R17</text><circle data-anchor="R17" cx="47.350000" cy="64.450000" r="0.001" opacity="0"/><text data-ref="R118" x="62.6500" y="54.1500" font-family="sans-serif" font-size="1" text-anchor="middle" fill="white" stroke="#091320" stroke-width="0.25" paint-order="stroke">R118</text><circle data-anchor="R118" cx="62.650000" cy="55.950000" r="0.001" opacity="0"/><text data-ref="R119" x="67.7500" y="54.1500" font-family="sans-serif" font-size="1" text-anchor="middle" fill="white" stroke="#091320" stroke-width="0.25" paint-order="stroke">R119</text><circle data-anchor="R119" cx="67.750000" cy="55.950000" r="0.001" opacity="0"/><text data-ref="LED15" x="47.3500" y="37.1500" font-family="sans-serif" font-size="1" text-anchor="middle" fill="white" stroke="#091320" stroke-width="0.25" paint-order="stroke">LED15</text><circle data-anchor="LED15" cx="47.350000" cy="38.950000" r="0.001" opacity="0"/><text data-ref="LED10" x="72.8500" y="32.9000" font-family="sans-serif" font-size="1" text-anchor="middle" fill="white" stroke="#091320" stroke-width="0.25" paint-order="stroke">LED10</text><circle data-anchor="LED10" cx="72.850000" cy="34.700000" r="0.001" opacity="0"/><text data-ref="LED17" x="57.5500" y="37.1500" font-family="sans-serif" font-size="1" text-anchor="middle" fill="white" stroke="#091320" stroke-width="0.25" paint-order="stroke">LED17</text><circle data-anchor="LED17" cx="57.550000" cy="38.950000" r="0.001" opacity="0"/><text data-ref="J107" x="62.6500" y="69.4500" font-family="sans-serif" font-size="1" text-anchor="middle" fill="white" stroke="#091320" stroke-width="0.25" paint-order="stroke">J107</text><circle data-anchor="J107" cx="62.650000" cy="71.250000" r="0.001" opacity="0"/><text data-ref="R82" x="72.8500" y="41.4000" font-family="sans-serif" font-size="1" text-anchor="middle" fill="white" stroke="#091320" stroke-width="0.25" paint-order="stroke">R82</text><circle data-anchor="R82" cx="72.850000" cy="43.200000" r="0.001" opacity="0"/><text data-ref="R99" x="67.7500" y="45.6500" font-family="sans-serif" font-size="1" text-anchor="middle" fill="white" stroke="#091320" stroke-width="0.25" paint-order="stroke">R99</text><circle data-anchor="R99" cx="67.750000" cy="47.450000" r="0.001" opacity="0"/><text data-ref="R19" x="52.4500" y="62.6500" font-family="sans-serif" font-size="1" text-anchor="middle" fill="white" stroke="#091320" stroke-width="0.25" paint-order="stroke">R19</text><circle data-anchor="R19" cx="52.450000" cy="64.450000" r="0.001" opacity="0"/><text data-ref="R96" x="52.4500" y="45.6500" font-family="sans-serif" font-size="1" text-anchor="middle" fill="white" stroke="#091320" stroke-width="0.25" paint-order="stroke">R96</text><circle data-anchor="R96" cx="52.450000" cy="47.450000" r="0.001" opacity="0"/><text data-ref="Q2" x="32.0500" y="32.9000" font-family="sans-serif" font-size="1" text-anchor="middle" fill="white" stroke="#091320" stroke-width="0.25" paint-order="stroke">Q2</text><circle data-anchor="Q2" cx="32.050000" cy="34.700000" r="0.001" opacity="0"/><text data-ref="R123" x="37.1500" y="58.4000" font-family="sans-serif" font-size="1" text-anchor="middle" fill="white" stroke="#091320" stroke-width="0.25" paint-order="stroke">R123</text><circle data-anchor="R123" cx="37.150000" cy="60.200000" r="0.001" opacity="0"/><text data-ref="LED14" x="42.2500" y="37.1500" font-family="sans-serif" font-size="1" text-anchor="middle" fill="white" stroke="#091320" stroke-width="0.25" paint-order="stroke">LED14</text><circle data-anchor="LED14" cx="42.250000" cy="38.950000" r="0.001" opacity="0"/><text data-ref="R104" x="42.2500" y="49.9000" font-family="sans-serif" font-size="1" text-anchor="middle" fill="white" stroke="#091320" stroke-width="0.25" paint-order="stroke">R104</text><circle data-anchor="R104" cx="42.250000" cy="51.700000" r="0.001" opacity="0"/><text data-ref="R114" x="42.2500" y="54.1500" font-family="sans-serif" font-size="1" text-anchor="middle" fill="white" stroke="#091320" stroke-width="0.25" paint-order="stroke">R114</text><circle data-anchor="R114" cx="42.250000" cy="55.950000" r="0.001" opacity="0"/><text data-ref="R83" x="37.1500" y="41.4000" font-family="sans-serif" font-size="1" text-anchor="middle" fill="white" stroke="#091320" stroke-width="0.25" paint-order="stroke">R83</text><circle data-anchor="R83" cx="37.150000" cy="43.200000" r="0.001" opacity="0"/><text data-ref="R120" x="72.8500" y="54.1500" font-family="sans-serif" font-size="1" text-anchor="middle" fill="white" stroke="#091320" stroke-width="0.25" paint-order="stroke">R120</text><circle data-anchor="R120" cx="72.850000" cy="55.950000" r="0.001" opacity="0"/><text data-ref="R97" x="57.5500" y="45.6500" font-family="sans-serif" font-size="1" text-anchor="middle" fill="white" stroke="#091320" stroke-width="0.25" paint-order="stroke">R97</text><circle data-anchor="R97" cx="57.550000" cy="47.450000" r="0.001" opacity="0"/><text data-ref="R111" x="77.9500" y="49.9000" font-family="sans-serif" font-size="1" text-anchor="middle" fill="white" stroke="#091320" stroke-width="0.25" paint-order="stroke">R111</text><circle data-anchor="R111" cx="77.950000" cy="51.700000" r="0.001" opacity="0"/><text data-ref="R115" x="47.3500" y="54.1500" font-family="sans-serif" font-size="1" text-anchor="middle" fill="white" stroke="#091320" stroke-width="0.25" paint-order="stroke">R115</text><circle data-anchor="R115" cx="47.350000" cy="55.950000" r="0.001" opacity="0"/><text data-ref="R110" x="72.8500" y="49.9000" font-family="sans-serif" font-size="1" text-anchor="middle" fill="white" stroke="#091320" stroke-width="0.25" paint-order="stroke">R110</text><circle data-anchor="R110" cx="72.850000" cy="51.700000" r="0.001" opacity="0"/><text data-ref="R112" x="77.9500" y="41.4000" font-family="sans-serif" font-size="1" text-anchor="middle" fill="white" stroke="#091320" stroke-width="0.25" paint-order="stroke">R112</text><circle data-anchor="R112" cx="77.950000" cy="43.200000" r="0.001" opacity="0"/><text data-ref="R88" x="62.6500" y="41.4000" font-family="sans-serif" font-size="1" text-anchor="middle" fill="white" stroke="#091320" stroke-width="0.25" paint-order="stroke">R88</text><circle data-anchor="R88" cx="62.650000" cy="43.200000" r="0.001" opacity="0"/><text data-ref="C5" x="72.8500" y="58.4000" font-family="sans-serif" font-size="1" text-anchor="middle" fill="white" stroke="#091320" stroke-width="0.25" paint-order="stroke">C5</text><circle data-anchor="C5" cx="72.850000" cy="60.200000" r="0.001" opacity="0"/><text data-ref="R113" x="37.1500" y="54.1500" font-family="sans-serif" font-size="1" text-anchor="middle" fill="white" stroke="#091320" stroke-width="0.25" paint-order="stroke">R113</text><circle data-anchor="R113" cx="37.150000" cy="55.950000" r="0.001" opacity="0"/><text data-ref="R86" x="52.4500" y="41.4000" font-family="sans-serif" font-size="1" text-anchor="middle" fill="white" stroke="#091320" stroke-width="0.25" paint-order="stroke">R86</text><circle data-anchor="R86" cx="52.450000" cy="43.200000" r="0.001" opacity="0"/><text data-ref="LED16" x="52.4500" y="37.1500" font-family="sans-serif" font-size="1" text-anchor="middle" fill="white" stroke="#091320" stroke-width="0.25" paint-order="stroke">LED16</text><circle data-anchor="LED16" cx="52.450000" cy="38.950000" r="0.001" opacity="0"/><text data-ref="R14" x="57.5500" y="62.6500" font-family="sans-serif" font-size="1" text-anchor="middle" fill="white" stroke="#091320" stroke-width="0.25" paint-order="stroke">R14</text><circle data-anchor="R14" cx="57.550000" cy="64.450000" r="0.001" opacity="0"/><text data-ref="J102" x="47.3500" y="26.9500" font-family="sans-serif" font-size="1" text-anchor="middle" fill="white" stroke="#091320" stroke-width="0.25" paint-order="stroke">J102</text><circle data-anchor="J102" cx="47.350000" cy="28.750000" r="0.001" opacity="0"/><text data-ref="Q3" x="37.1500" y="32.9000" font-family="sans-serif" font-size="1" text-anchor="middle" fill="white" stroke="#091320" stroke-width="0.25" paint-order="stroke">Q3</text><circle data-anchor="Q3" cx="37.150000" cy="34.700000" r="0.001" opacity="0"/><text data-ref="J106" x="47.3500" y="69.4500" font-family="sans-serif" font-size="1" text-anchor="middle" fill="white" stroke="#091320" stroke-width="0.25" paint-order="stroke">J106</text><circle data-anchor="J106" cx="47.350000" cy="71.250000" r="0.001" opacity="0"/><text data-ref="R95" x="47.3500" y="45.6500" font-family="sans-serif" font-size="1" text-anchor="middle" fill="white" stroke="#091320" stroke-width="0.25" paint-order="stroke">R95</text><circle data-anchor="R95" cx="47.350000" cy="47.450000" r="0.001" opacity="0"/><text data-ref="R109" x="67.7500" y="49.9000" font-family="sans-serif" font-size="1" text-anchor="middle" fill="white" stroke="#091320" stroke-width="0.25" paint-order="stroke">R109</text><circle data-anchor="R109" cx="67.750000" cy="51.700000" r="0.001" opacity="0"/><text data-ref="R117" x="57.5500" y="54.1500" font-family="sans-serif" font-size="1" text-anchor="middle" fill="white" stroke="#091320" stroke-width="0.25" paint-order="stroke">R117</text><circle data-anchor="R117" cx="57.550000" cy="55.950000" r="0.001" opacity="0"/><text data-ref="LED12" x="32.0500" y="37.1500" font-family="sans-serif" font-size="1" text-anchor="middle" fill="white" stroke="#091320" stroke-width="0.25" paint-order="stroke">LED12</text><circle data-anchor="LED12" cx="32.050000" cy="38.950000" r="0.001" opacity="0"/><text data-ref="R125" x="47.3500" y="58.4000" font-family="sans-serif" font-size="1" text-anchor="middle" fill="white" stroke="#091320" stroke-width="0.25" paint-order="stroke">R125</text><circle data-anchor="R125" cx="47.350000" cy="60.200000" r="0.001" opacity="0"/><text data-ref="R74" x="57.5500" y="58.4000" font-family="sans-serif" font-size="1" text-anchor="middle" fill="white" stroke="#091320" stroke-width="0.25" paint-order="stroke">R74</text><circle data-anchor="R74" cx="57.550000" cy="60.200000" r="0.001" opacity="0"/><text data-ref="R87" x="57.5500" y="41.4000" font-family="sans-serif" font-size="1" text-anchor="middle" fill="white" stroke="#091320" stroke-width="0.25" paint-order="stroke">R87</text><circle data-anchor="R87" cx="57.550000" cy="43.200000" r="0.001" opacity="0"/><text data-ref="R18" x="62.6500" y="62.6500" font-family="sans-serif" font-size="1" text-anchor="middle" fill="white" stroke="#091320" stroke-width="0.25" paint-order="stroke">R18</text><circle data-anchor="R18" cx="62.650000" cy="64.450000" r="0.001" opacity="0"/><text data-ref="Q6" x="52.4500" y="32.9000" font-family="sans-serif" font-size="1" text-anchor="middle" fill="white" stroke="#091320" stroke-width="0.25" paint-order="stroke">Q6</text><circle data-anchor="Q6" cx="52.450000" cy="34.700000" r="0.001" opacity="0"/><path d="M3.0 87.08h10" stroke="white" stroke-width="0.3"/><text x="3.0" y="86.08" fill="white" font-size="1.5">10 mm · fixed world XY</text><circle cx="0" cy="0" r="0.7" fill="#65ddc4"/></svg>
