<?xml version="1.0" standalone="no"?>
 <!DOCTYPE svg PUBLIC "-//W3C//DTD SVG 1.1//EN" 
 "http://www.w3.org/Graphics/SVG/1.1/DTD/svg11.dtd"> 
<svg
  xmlns:svg="http://www.w3.org/2000/svg"
  xmlns="http://www.w3.org/2000/svg"
  xmlns:xlink="http://www.w3.org/1999/xlink"
  xmlns:inkscape="http://www.inkscape.org/namespaces/inkscape"
  version="1.1"
  width="82.0mm" height="68.0mm" viewBox="-5.0 -5.0 82.0 68.0" preserveAspectRatio="xMidYMid meet">
<defs><pattern id="world-grid" width="10" height="10" patternUnits="userSpaceOnUse"><path d="M10 0H0V10" fill="none" stroke="#284055" stroke-width="0.12"/></pattern></defs><rect x="-5.0" y="-5.0" width="82.0" height="68.0" fill="url(#world-grid)"/><title>SVG Image created as B.Cu-absolute.tmp.svg date 2026-09-13T12:25:12 </title>
  <desc>Image generated by PCBNEW </desc>
<g style="fill:#000000; fill-opacity:1.0000;stroke:#000000; stroke-opacity:1.0000;
stroke-linecap:round; stroke-linejoin:round;"
 transform="translate(0 0) scale(1 1)">
<path style="fill:#4D7FC4; fill-opacity:1.0000; stroke:none;fill-rule:evenodd;"
d="M 24.1298,36.2098
22.2502,36.2098
22.2502,34.3302
24.1298,34.3302
Z" /> 
</g>
<g style="fill:#4D7FC4; fill-opacity:1.0000; stroke:none;">
<circle cx="23.1900" cy="32.7300" r="0.9398" /> 
<circle cx="25.7300" cy="35.2700" r="0.9398" /> 
<circle cx="25.7300" cy="32.7300" r="0.9398" /> 
<circle cx="28.2700" cy="35.2700" r="0.9398" /> 
<circle cx="28.2700" cy="32.7300" r="0.9398" /> 
<circle cx="30.8100" cy="35.2700" r="0.9398" /> 
<circle cx="30.8100" cy="32.7300" r="0.9398" /> 
</g>
<g style="fill:none; 
stroke:#F2EDA1; stroke-width:0.0800; stroke-opacity:1; 
stroke-linecap:round; stroke-linejoin:round;">
<text x="55.0160" y="27.7780"
textLength="1.0705" font-size="1.0667" lengthAdjust="spacingAndGlyphs"
text-anchor="start" opacity="0" stroke-opacity="0">+</text>
<g class="stroked-text"><desc>+</desc>
<path d="M55.2591 27.3712
L55.8686 27.3712
" />
<path d="M55.5639 27.6759
L55.5639 27.0664
" />
</g></g>
<g style="fill:none; 
stroke:#F2EDA1; stroke-width:0.1270; stroke-opacity:1; 
stroke-linecap:round; stroke-linejoin:round;">
<path d="M61.1000 41.5500
L61.1000 42.4500
" />
<path d="M61.1000 42.4500
L62.9000 42.4500
" />
<path d="M62.9000 41.5500
L61.1000 41.5500
" />
<path d="M62.9000 42.4500
L62.9000 41.5500
" />
<path d="M45.1000 33.5500
L45.1000 34.4500
" />
<path d="M45.1000 34.4500
L46.9000 34.4500
" />
<path d="M46.9000 33.5500
L45.1000 33.5500
" />
<path d="M46.9000 34.4500
L46.9000 33.5500
" />
<path d="M44.5000 41.2000
L44.5000 42.8000
" />
<path d="M44.5000 42.8000
L47.5000 42.8000
" />
<path d="M47.5000 41.2000
L44.5000 41.2000
" />
<path d="M47.5000 42.8000
L47.5000 41.2000
" />
<path d="M61.1000 33.5500
L61.1000 34.4500
" />
<path d="M61.1000 34.4500
L62.9000 34.4500
" />
<path d="M62.9000 33.5500
L61.1000 33.5500
" />
<path d="M62.9000 34.4500
L62.9000 33.5500
" />
<path d="M37.1000 41.5500
L37.1000 42.4500
" />
<path d="M37.1000 42.4500
L38.9000 42.4500
" />
<path d="M38.9000 41.5500
L37.1000 41.5500
" />
<path d="M38.9000 42.4500
L38.9000 41.5500
" />
<path d="M53.3000 24.2000
L53.3000 27.8000
" />
<path d="M53.3000 27.8000
L54.7000 27.8000
" />
<path d="M54.7000 24.2000
L53.3000 24.2000
" />
<path d="M54.7000 27.8000
L54.7000 24.2000
" />
</g>
<g style="fill:none; 
stroke:#F2EDA1; stroke-width:0.1524; stroke-opacity:1; 
stroke-linecap:round; stroke-linejoin:round;">
<path d="M21.9200 31.8410
L21.9200 36.1590
" />
<path d="M22.3010 31.4600
L31.6990 31.4600
" />
<path d="M22.3010 36.5400
L31.6990 36.5400
" />
<path d="M32.0800 31.8410
L32.0800 36.1590
" />
<path d="M22.3010 31.4600 A0.3810 0.3810 0.0 0 0 21.9200 31.8410" />
<path d="M21.9200 36.1590 A0.3810 0.3810 0.0 0 0 22.3010 36.5400" />
<path d="M32.0800 31.8410 A0.3810 0.3810 0.0 0 0 31.6990 31.4600" />
<path d="M31.6990 36.5400 A0.3810 0.3810 0.0 0 0 32.0800 36.1590" />
</g>
<g style="fill:none; 
stroke:#F2EDA1; stroke-width:0.1270; stroke-opacity:1; 
stroke-linecap:round; stroke-linejoin:round;">
<path d="M45.1000 25.5500
L45.1000 26.4500
" />
<path d="M45.1000 26.4500
L46.9000 26.4500
" />
<path d="M46.9000 25.5500
L45.1000 25.5500
" />
<path d="M46.9000 26.4500
L46.9000 25.5500
" />
<path d="M36.3000 25.3000
L36.3000 26.5000
" />
<path d="M36.3000 25.3000
L37.4000 25.3000
" />
<path d="M36.3000 26.5000
L36.4000 26.5000
" />
<path d="M38.6000 25.3000
L39.7000 25.3000
" />
<path d="M39.7000 25.3000
L39.7000 26.5000
" />
<path d="M39.7000 26.5000
L39.6000 26.5000
" />
<path d="M53.1000 33.5500
L53.1000 34.4500
" />
<path d="M53.1000 34.4500
L54.9000 34.4500
" />
<path d="M54.9000 33.5500
L53.1000 33.5500
" />
<path d="M54.9000 34.4500
L54.9000 33.5500
" />
<path d="M37.1000 33.5500
L37.1000 34.4500
" />
<path d="M37.1000 34.4500
L38.9000 34.4500
" />
<path d="M38.9000 33.5500
L37.1000 33.5500
" />
<path d="M38.9000 34.4500
L38.9000 33.5500
" />
</g>
<g style="fill:none; 
stroke:#F2EDA1; stroke-width:0.2032; stroke-opacity:1; 
stroke-linecap:round; stroke-linejoin:round;">
<path d="M60.5776 26.4294
L60.5776 25.5706
" />
<path d="M61.7316 25.1896
L62.2684 25.1896
" />
<path d="M63.4224 25.5706
L63.4224 26.4294
" />
</g>
<g style="fill:none; 
stroke:#F2EDA1; stroke-width:0.1270; stroke-opacity:1; 
stroke-linecap:round; stroke-linejoin:round;">
<path d="M53.1000 49.5500
L53.1000 50.4500
" />
<path d="M53.1000 50.4500
L54.9000 50.4500
" />
<path d="M54.9000 49.5500
L53.1000 49.5500
" />
<path d="M54.9000 50.4500
L54.9000 49.5500
" />
<path d="M61.1000 49.5500
L61.1000 50.4500
" />
<path d="M61.1000 50.4500
L62.9000 50.4500
" />
<path d="M62.9000 49.5500
L61.1000 49.5500
" />
<path d="M62.9000 50.4500
L62.9000 49.5500
" />
<path d="M45.1000 49.5500
L45.1000 50.4500
" />
<path d="M45.1000 50.4500
L46.9000 50.4500
" />
<path d="M46.9000 49.5500
L45.1000 49.5500
" />
<path d="M46.9000 50.4500
L46.9000 49.5500
" />
</g>
<g style="fill:none; 
stroke:#D0D2CD; stroke-width:0.0500; stroke-opacity:1; 
stroke-linecap:round; stroke-linejoin:round;">
<path d="M20.0000 20.0000
L72.0000 20.0000
" />
<path d="M20.0000 58.0000
L20.0000 20.0000
" />
<path d="M72.0000 20.0000
L72.0000 58.0000
" />
<path d="M72.0000 58.0000
L20.0000 58.0000
" />
</g>
<g style="fill:#FFFFFF; fill-opacity:1.0000; stroke:none;">
<circle cx="23.1900" cy="35.2700" r="0.5080" /> 
</g>
<g style="fill:#FFFFFF; fill-opacity:1.0000; stroke:none;">
<circle cx="23.1900" cy="32.7300" r="0.5080" /> 
</g>
<g style="fill:#FFFFFF; fill-opacity:1.0000; stroke:none;">
<circle cx="25.7300" cy="35.2700" r="0.5080" /> 
</g>
<g style="fill:#FFFFFF; fill-opacity:1.0000; stroke:none;">
<circle cx="25.7300" cy="32.7300" r="0.5080" /> 
</g>
<g style="fill:#FFFFFF; fill-opacity:1.0000; stroke:none;">
<circle cx="28.2700" cy="35.2700" r="0.5080" /> 
</g>
<g style="fill:#FFFFFF; fill-opacity:1.0000; stroke:none;">
<circle cx="28.2700" cy="32.7300" r="0.5080" /> 
</g>
<g style="fill:#FFFFFF; fill-opacity:1.0000; stroke:none;">
<circle cx="30.8100" cy="35.2700" r="0.5080" /> 
</g>
<g style="fill:#FFFFFF; fill-opacity:1.0000; stroke:none;">
<circle cx="30.8100" cy="32.7300" r="0.5080" /> 
</g> 
<text data-ref="R98" x="62.0000" y="40.2000" font-family="sans-serif" font-size="1" text-anchor="middle" fill="white" stroke="#091320" stroke-width="0.25" paint-order="stroke">R98</text><circle data-anchor="R98" cx="62.000000" cy="42.000000" r="0.001" opacity="0"/><text data-ref="R91" x="46.0000" y="32.2000" font-family="sans-serif" font-size="1" text-anchor="middle" fill="white" stroke="#091320" stroke-width="0.25" paint-order="stroke">R91</text><circle data-anchor="R91" cx="46.000000" cy="34.000000" r="0.001" opacity="0"/><text data-ref="C50" x="46.0000" y="40.2000" font-family="sans-serif" font-size="1" text-anchor="middle" fill="white" stroke="#091320" stroke-width="0.25" paint-order="stroke">C50</text><circle data-anchor="C50" cx="46.000000" cy="42.000000" r="0.001" opacity="0"/><text data-ref="R90" x="62.0000" y="32.2000" font-family="sans-serif" font-size="1" text-anchor="middle" fill="white" stroke="#091320" stroke-width="0.25" paint-order="stroke">R90</text><circle data-anchor="R90" cx="62.000000" cy="34.000000" r="0.001" opacity="0"/><text data-ref="C46" x="38.0000" y="40.2000" font-family="sans-serif" font-size="1" text-anchor="middle" fill="white" stroke="#091320" stroke-width="0.25" paint-order="stroke">C46</text><circle data-anchor="C46" cx="38.000000" cy="42.000000" r="0.001" opacity="0"/><text data-ref="LED6" x="54.0000" y="24.2000" font-family="sans-serif" font-size="1" text-anchor="middle" fill="white" stroke="#091320" stroke-width="0.25" paint-order="stroke">LED6</text><circle data-anchor="LED6" cx="54.000000" cy="26.000000" r="0.001" opacity="0"/><text data-ref="J4" x="27.0000" y="32.2000" font-family="sans-serif" font-size="1" text-anchor="middle" fill="white" stroke="#091320" stroke-width="0.25" paint-order="stroke">J4</text><circle data-anchor="J4" cx="27.000000" cy="34.000000" r="0.001" opacity="0"/><text data-ref="R78" x="46.0000" y="24.2000" font-family="sans-serif" font-size="1" text-anchor="middle" fill="white" stroke="#091320" stroke-width="0.25" paint-order="stroke">R78</text><circle data-anchor="R78" cx="46.000000" cy="26.000000" r="0.001" opacity="0"/><text data-ref="LED10" x="38.0000" y="24.2000" font-family="sans-serif" font-size="1" text-anchor="middle" fill="white" stroke="#091320" stroke-width="0.25" paint-order="stroke">LED10</text><circle data-anchor="LED10" cx="38.000000" cy="26.000000" r="0.001" opacity="0"/><text data-ref="R82" x="54.0000" y="32.2000" font-family="sans-serif" font-size="1" text-anchor="middle" fill="white" stroke="#091320" stroke-width="0.25" paint-order="stroke">R82</text><circle data-anchor="R82" cx="54.000000" cy="34.000000" r="0.001" opacity="0"/><text data-ref="R19" x="38.0000" y="32.2000" font-family="sans-serif" font-size="1" text-anchor="middle" fill="white" stroke="#091320" stroke-width="0.25" paint-order="stroke">R19</text><circle data-anchor="R19" cx="38.000000" cy="34.000000" r="0.001" opacity="0"/><text data-ref="Q2" x="62.0000" y="24.2000" font-family="sans-serif" font-size="1" text-anchor="middle" fill="white" stroke="#091320" stroke-width="0.25" paint-order="stroke">Q2</text><circle data-anchor="Q2" cx="62.000000" cy="26.000000" r="0.001" opacity="0"/><text data-ref="R83" x="54.0000" y="48.2000" font-family="sans-serif" font-size="1" text-anchor="middle" fill="white" stroke="#091320" stroke-width="0.25" paint-order="stroke">R83</text><circle data-anchor="R83" cx="54.000000" cy="50.000000" r="0.001" opacity="0"/><text data-ref="C5" x="62.0000" y="48.2000" font-family="sans-serif" font-size="1" text-anchor="middle" fill="white" stroke="#091320" stroke-width="0.25" paint-order="stroke">C5</text><circle data-anchor="C5" cx="62.000000" cy="50.000000" r="0.001" opacity="0"/><text data-ref="R74" x="46.0000" y="48.2000" font-family="sans-serif" font-size="1" text-anchor="middle" fill="white" stroke="#091320" stroke-width="0.25" paint-order="stroke">R74</text><circle data-anchor="R74" cx="46.000000" cy="50.000000" r="0.001" opacity="0"/><path d="M3.0 58.0h10" stroke="white" stroke-width="0.3"/><text x="3.0" y="57.0" fill="white" font-size="1.5">10 mm · fixed world XY</text><circle cx="0" cy="0" r="0.7" fill="#65ddc4"/></svg>
